<svg width="204" height="187" viewBox="0 0 204 187" fill="none" xmlns="http://www.w3.org/2000/svg">
<g filter="url(#filter0_dd_1_394)">
<rect x="7" y="5" width="189.7" height="171.5" rx="8.4" fill="white" shape-rendering="crispEdges"/>
<rect x="7" y="5" width="189.7" height="171.5" rx="8.4" fill="url(#paint0_linear_1_394)" fill-opacity="0.2" shape-rendering="crispEdges"/>
<path d="M24.1122 75L21.2884 64.8182H22.9041L24.8878 72.7031H24.9822L27.0455 64.8182H28.6463L30.7095 72.7081H30.804L32.7827 64.8182H34.4034L31.5746 75H30.0284L27.8857 67.3736H27.8061L25.6634 75H24.1122ZM38.2241 75.1541C37.4717 75.1541 36.8237 74.9934 36.2802 74.6719C35.7399 74.3471 35.3223 73.8913 35.0273 73.3047C34.7357 72.7147 34.5898 72.0237 34.5898 71.2315C34.5898 70.4493 34.7357 69.7599 35.0273 69.1634C35.3223 68.5668 35.7333 68.1011 36.2603 67.7663C36.7906 67.4316 37.4104 67.2642 38.1197 67.2642C38.5505 67.2642 38.9682 67.3355 39.3725 67.478C39.7769 67.6205 40.1398 67.8442 40.4613 68.1491C40.7828 68.4541 41.0363 68.8501 41.2219 69.3374C41.4076 69.8213 41.5004 70.4096 41.5004 71.1023V71.6293H35.43V70.5156H40.0437C40.0437 70.1245 39.9641 69.7782 39.805 69.4766C39.646 69.1716 39.4222 68.9313 39.1339 68.7557C38.8488 68.58 38.5141 68.4922 38.1296 68.4922C37.712 68.4922 37.3474 68.5949 37.0359 68.8004C36.7276 69.0026 36.489 69.2678 36.32 69.5959C36.1542 69.9207 36.0714 70.2737 36.0714 70.6548V71.5249C36.0714 72.0353 36.1609 72.4695 36.3398 72.8274C36.5221 73.1854 36.7757 73.4588 37.1005 73.6477C37.4253 73.8333 37.8048 73.9261 38.239 73.9261C38.5207 73.9261 38.7776 73.8864 39.0096 73.8068C39.2416 73.724 39.4421 73.6013 39.6112 73.4389C39.7802 73.2765 39.9094 73.076 39.9989 72.8374L41.4059 73.0909C41.2932 73.5052 41.091 73.8681 40.7994 74.1797C40.511 74.4879 40.1481 74.7282 39.7106 74.9006C39.2764 75.0696 38.7809 75.1541 38.2241 75.1541ZM44.4274 64.8182V65.7727C44.4274 66.0545 44.3743 66.3511 44.2683 66.6626C44.1655 66.9709 44.0197 67.2675 43.8308 67.5526C43.6419 67.8376 43.4198 68.0829 43.1646 68.2884L42.4288 67.7614C42.6243 67.4763 42.7934 67.1731 42.9359 66.8516C43.0817 66.5301 43.1547 66.1754 43.1547 65.7876V64.8182H44.4274ZM47.4252 64.8182V75H45.9387V64.8182H47.4252ZM50.9116 64.8182V75H49.4251V64.8182H50.9116ZM56.7358 75V64.8182H58.2223V68.6016H58.3118C58.398 68.4425 58.5223 68.2585 58.6847 68.0497C58.8471 67.8409 59.0724 67.6586 59.3608 67.5028C59.6491 67.3438 60.0303 67.2642 60.5043 67.2642C61.1207 67.2642 61.6709 67.42 62.1548 67.7315C62.6387 68.0431 63.0182 68.4922 63.2933 69.0788C63.5717 69.6655 63.7109 70.3714 63.7109 71.1967C63.7109 72.022 63.5734 72.7296 63.2983 73.3196C63.0232 73.9062 62.6454 74.3587 62.1648 74.6768C61.6842 74.9917 61.1357 75.1491 60.5192 75.1491C60.0552 75.1491 59.6757 75.0713 59.3807 74.9155C59.089 74.7597 58.8603 74.5774 58.6946 74.3686C58.5289 74.1598 58.4013 73.9742 58.3118 73.8118H58.1875V75H56.7358ZM58.1925 71.1818C58.1925 71.7187 58.2704 72.1894 58.4261 72.5938C58.5819 72.9981 58.8073 73.3146 59.1023 73.5433C59.3973 73.7687 59.7585 73.8814 60.1861 73.8814C60.6302 73.8814 61.0014 73.7637 61.2997 73.5284C61.598 73.2898 61.8234 72.9666 61.9759 72.5589C62.1316 72.1513 62.2095 71.6922 62.2095 71.1818C62.2095 70.678 62.1333 70.2256 61.9808 69.8246C61.8317 69.4235 61.6063 69.107 61.3047 68.875C61.0064 68.643 60.6335 68.527 60.1861 68.527C59.7552 68.527 59.3906 68.638 59.0923 68.8601C58.7973 69.0821 58.5736 69.392 58.4212 69.7898C58.2687 70.1875 58.1925 70.6515 58.1925 71.1818ZM68.6713 75.1541C67.919 75.1541 67.271 74.9934 66.7275 74.6719C66.1872 74.3471 65.7696 73.8913 65.4746 73.3047C65.1829 72.7147 65.0371 72.0237 65.0371 71.2315C65.0371 70.4493 65.1829 69.7599 65.4746 69.1634C65.7696 68.5668 66.1806 68.1011 66.7076 67.7663C67.2379 67.4316 67.8577 67.2642 68.5669 67.2642C68.9978 67.2642 69.4154 67.3355 69.8198 67.478C70.2241 67.6205 70.5871 67.8442 70.9086 68.1491C71.2301 68.4541 71.4836 68.8501 71.6692 69.3374C71.8548 69.8213 71.9476 70.4096 71.9476 71.1023V71.6293H65.8773V70.5156H70.4909C70.4909 70.1245 70.4114 69.7782 70.2523 69.4766C70.0932 69.1716 69.8695 68.9313 69.5811 68.7557C69.2961 68.58 68.9614 68.4922 68.5769 68.4922C68.1593 68.4922 67.7947 68.5949 67.4831 68.8004C67.1749 69.0026 66.9363 69.2678 66.7672 69.5959C66.6015 69.9207 66.5186 70.2737 66.5186 70.6548V71.5249C66.5186 72.0353 66.6081 72.4695 66.7871 72.8274C66.9694 73.1854 67.223 73.4588 67.5478 73.6477C67.8726 73.8333 68.2521 73.9261 68.6863 73.9261C68.968 73.9261 69.2248 73.8864 69.4569 73.8068C69.6889 73.724 69.8894 73.6013 70.0584 73.4389C70.2275 73.2765 70.3567 73.076 70.4462 72.8374L71.8532 73.0909C71.7405 73.5052 71.5383 73.8681 71.2466 74.1797C70.9583 74.4879 70.5953 74.7282 70.1578 74.9006C69.7237 75.0696 69.2282 75.1541 68.6713 75.1541ZM83.0243 69.228L81.677 69.4666C81.6207 69.2943 81.5312 69.1302 81.4086 68.9744C81.2892 68.8187 81.1268 68.6911 80.9213 68.5916C80.7159 68.4922 80.459 68.4425 80.1507 68.4425C79.7298 68.4425 79.3785 68.5369 79.0968 68.7259C78.815 68.9115 78.6742 69.1518 78.6742 69.4467C78.6742 69.7019 78.7686 69.9074 78.9576 70.0632C79.1465 70.219 79.4514 70.3466 79.8723 70.446L81.0854 70.7244C81.7881 70.8868 82.3117 71.1371 82.6564 71.4751C83.0011 71.8132 83.1735 72.2524 83.1735 72.7926C83.1735 73.25 83.0409 73.6577 82.7757 74.0156C82.5139 74.3703 82.1477 74.6487 81.677 74.8509C81.2097 75.053 80.6678 75.1541 80.0513 75.1541C79.1962 75.1541 78.4985 74.9718 77.9583 74.6072C77.418 74.2393 77.0866 73.7173 76.964 73.0412L78.4007 72.8224C78.4902 73.197 78.6742 73.4804 78.9526 73.6726C79.231 73.8615 79.5939 73.956 80.0414 73.956C80.5286 73.956 80.918 73.8549 81.2097 73.6527C81.5014 73.4472 81.6472 73.197 81.6472 72.902C81.6472 72.6634 81.5577 72.4628 81.3787 72.3004C81.2031 72.138 80.9329 72.0154 80.5684 71.9325L79.2757 71.6491C78.5632 71.4867 78.0362 71.2282 77.6948 70.8736C77.3567 70.5189 77.1877 70.0698 77.1877 69.5263C77.1877 69.0755 77.3136 68.6811 77.5655 68.343C77.8174 68.005 78.1654 67.7415 78.6096 67.5526C79.0537 67.3603 79.5624 67.2642 80.1358 67.2642C80.9611 67.2642 81.6107 67.4432 82.0847 67.8011C82.5587 68.1558 82.8719 68.6314 83.0243 69.228ZM88.0991 75.1541C87.3467 75.1541 86.6987 74.9934 86.1552 74.6719C85.6149 74.3471 85.1973 73.8913 84.9023 73.3047C84.6107 72.7147 84.4648 72.0237 84.4648 71.2315C84.4648 70.4493 84.6107 69.7599 84.9023 69.1634C85.1973 68.5668 85.6083 68.1011 86.1353 67.7663C86.6656 67.4316 87.2854 67.2642 87.9947 67.2642C88.4255 67.2642 88.8432 67.3355 89.2475 67.478C89.6519 67.6205 90.0148 67.8442 90.3363 68.1491C90.6578 68.4541 90.9113 68.8501 91.0969 69.3374C91.2826 69.8213 91.3754 70.4096 91.3754 71.1023V71.6293H85.305V70.5156H89.9187C89.9187 70.1245 89.8391 69.7782 89.68 69.4766C89.521 69.1716 89.2972 68.9313 89.0089 68.7557C88.7238 68.58 88.3891 68.4922 88.0046 68.4922C87.587 68.4922 87.2224 68.5949 86.9109 68.8004C86.6026 69.0026 86.364 69.2678 86.195 69.5959C86.0292 69.9207 85.9464 70.2737 85.9464 70.6548V71.5249C85.9464 72.0353 86.0359 72.4695 86.2148 72.8274C86.3971 73.1854 86.6507 73.4588 86.9755 73.6477C87.3003 73.8333 87.6798 73.9261 88.114 73.9261C88.3957 73.9261 88.6526 73.8864 88.8846 73.8068C89.1166 73.724 89.3171 73.6013 89.4862 73.4389C89.6552 73.2765 89.7844 73.076 89.8739 72.8374L91.2809 73.0909C91.1682 73.5052 90.966 73.8681 90.6744 74.1797C90.386 74.4879 90.0231 74.7282 89.5856 74.9006C89.1514 75.0696 88.6559 75.1541 88.0991 75.1541ZM94.5112 70.4659V75H93.0247V67.3636H94.4515V68.6065H94.546C94.7217 68.2022 94.9967 67.8774 95.3713 67.6321C95.7491 67.3868 96.2247 67.2642 96.7981 67.2642C97.3185 67.2642 97.7742 67.3736 98.1653 67.5923C98.5564 67.8078 98.8597 68.1293 99.0751 68.5568C99.2905 68.9844 99.3983 69.513 99.3983 70.1428V75H97.9118V70.3217C97.9118 69.7682 97.7676 69.3357 97.4792 69.0241C97.1909 68.7093 96.7948 68.5518 96.291 68.5518C95.9463 68.5518 95.6397 68.6264 95.3713 68.7756C95.1061 68.9247 94.8957 69.1435 94.7399 69.4318C94.5874 69.7169 94.5112 70.0616 94.5112 70.4659ZM104.251 75.1491C103.634 75.1491 103.084 74.9917 102.6 74.6768C102.119 74.3587 101.742 73.9062 101.466 73.3196C101.195 72.7296 101.059 72.022 101.059 71.1967C101.059 70.3714 101.196 69.6655 101.471 69.0788C101.75 68.4922 102.131 68.0431 102.615 67.7315C103.099 67.42 103.647 67.2642 104.26 67.2642C104.734 67.2642 105.116 67.3438 105.404 67.5028C105.696 67.6586 105.921 67.8409 106.08 68.0497C106.242 68.2585 106.368 68.4425 106.458 68.6016H106.547V64.8182H108.034V75H106.582V73.8118H106.458C106.368 73.9742 106.239 74.1598 106.07 74.3686C105.904 74.5774 105.676 74.7597 105.384 74.9155C105.092 75.0713 104.715 75.1491 104.251 75.1491ZM104.579 73.8814C105.006 73.8814 105.367 73.7687 105.662 73.5433C105.961 73.3146 106.186 72.9981 106.339 72.5938C106.494 72.1894 106.572 71.7187 106.572 71.1818C106.572 70.6515 106.496 70.1875 106.344 69.7898C106.191 69.392 105.967 69.0821 105.672 68.8601C105.377 68.638 105.013 68.527 104.579 68.527C104.131 68.527 103.758 68.643 103.46 68.875C103.162 69.107 102.936 69.4235 102.784 69.8246C102.635 70.2256 102.56 70.678 102.56 71.1818C102.56 71.6922 102.636 72.1513 102.789 72.5589C102.941 72.9666 103.167 73.2898 103.465 73.5284C103.767 73.7637 104.138 73.8814 104.579 73.8814ZM110.156 75V67.3636H111.642V75H110.156ZM110.906 66.1854C110.648 66.1854 110.426 66.0992 110.24 65.9268C110.058 65.7512 109.967 65.5424 109.967 65.3004C109.967 65.0552 110.058 64.8464 110.24 64.674C110.426 64.4983 110.648 64.4105 110.906 64.4105C111.165 64.4105 111.385 64.4983 111.567 64.674C111.753 64.8464 111.846 65.0552 111.846 65.3004C111.846 65.5424 111.753 65.7512 111.567 65.9268C111.385 66.0992 111.165 66.1854 110.906 66.1854ZM115.128 70.4659V75H113.642V67.3636H115.069V68.6065H115.163C115.339 68.2022 115.614 67.8774 115.988 67.6321C116.366 67.3868 116.842 67.2642 117.415 67.2642C117.936 67.2642 118.391 67.3736 118.782 67.5923C119.174 67.8078 119.477 68.1293 119.692 68.5568C119.908 68.9844 120.015 69.513 120.015 70.1428V75H118.529V70.3217C118.529 69.7682 118.385 69.3357 118.096 69.0241C117.808 68.7093 117.412 68.5518 116.908 68.5518C116.564 68.5518 116.257 68.6264 115.988 68.7756C115.723 68.9247 115.513 69.1435 115.357 69.4318C115.205 69.7169 115.128 70.0616 115.128 70.4659ZM125.211 78.0227C124.604 78.0227 124.082 77.9432 123.645 77.7841C123.211 77.625 122.856 77.4145 122.581 77.1527C122.306 76.8909 122.1 76.6042 121.964 76.2926L123.242 75.7656C123.331 75.9115 123.451 76.0656 123.6 76.228C123.752 76.3937 123.958 76.5346 124.216 76.6506C124.478 76.7666 124.815 76.8246 125.226 76.8246C125.789 76.8246 126.255 76.687 126.623 76.4119C126.991 76.1402 127.175 75.706 127.175 75.1094V73.608H127.08C126.991 73.7704 126.861 73.951 126.692 74.1499C126.527 74.3487 126.298 74.5211 126.006 74.6669C125.715 74.8127 125.335 74.8857 124.868 74.8857C124.265 74.8857 123.721 74.7448 123.237 74.4631C122.756 74.178 122.375 73.7588 122.094 73.2053C121.815 72.6484 121.676 71.964 121.676 71.152C121.676 70.34 121.814 69.6439 122.089 69.0639C122.367 68.4839 122.748 68.0398 123.232 67.7315C123.716 67.42 124.265 67.2642 124.878 67.2642C125.352 67.2642 125.734 67.3438 126.026 67.5028C126.318 67.6586 126.545 67.8409 126.707 68.0497C126.873 68.2585 127.001 68.4425 127.09 68.6016H127.199V67.3636H128.656V75.169C128.656 75.8253 128.504 76.3639 128.199 76.7848C127.894 77.2057 127.481 77.5173 126.961 77.7195C126.444 77.9216 125.86 78.0227 125.211 78.0227ZM125.196 73.6527C125.623 73.6527 125.985 73.5533 126.28 73.3544C126.578 73.1522 126.803 72.8639 126.956 72.4893C127.112 72.1115 127.189 71.6591 127.189 71.1321C127.189 70.6184 127.113 70.166 126.961 69.7749C126.808 69.3838 126.585 69.0788 126.29 68.8601C125.995 68.638 125.63 68.527 125.196 68.527C124.748 68.527 124.376 68.643 124.077 68.875C123.779 69.1037 123.554 69.4152 123.401 69.8097C123.252 70.2041 123.177 70.6449 123.177 71.1321C123.177 71.6326 123.254 72.0717 123.406 72.4496C123.559 72.8274 123.784 73.1224 124.082 73.3345C124.384 73.5466 124.755 73.6527 125.196 73.6527ZM23.4858 87.4659V92H21.9993V84.3636H23.4261V85.6065H23.5206C23.6963 85.2022 23.9714 84.8774 24.3459 84.6321C24.7237 84.3868 25.1993 84.2642 25.7727 84.2642C26.2931 84.2642 26.7488 84.3736 27.1399 84.5923C27.531 84.8078 27.8343 85.1293 28.0497 85.5568C28.2652 85.9844 28.3729 86.513 28.3729 87.1428V92H26.8864V87.3217C26.8864 86.7682 26.7422 86.3357 26.4538 86.0241C26.1655 85.7093 25.7694 85.5518 25.2656 85.5518C24.9209 85.5518 24.6143 85.6264 24.3459 85.7756C24.0807 85.9247 23.8703 86.1435 23.7145 86.4318C23.562 86.7169 23.4858 87.0616 23.4858 87.4659ZM33.5831 92.1541C32.8672 92.1541 32.2424 91.9901 31.7088 91.6619C31.1752 91.3338 30.7609 90.8748 30.4659 90.2848C30.1709 89.6948 30.0234 89.0054 30.0234 88.2166C30.0234 87.4245 30.1709 86.7318 30.4659 86.1385C30.7609 85.5452 31.1752 85.0845 31.7088 84.7564C32.2424 84.4283 32.8672 84.2642 33.5831 84.2642C34.299 84.2642 34.9238 84.4283 35.4574 84.7564C35.991 85.0845 36.4053 85.5452 36.7003 86.1385C36.9953 86.7318 37.1428 87.4245 37.1428 88.2166C37.1428 89.0054 36.9953 89.6948 36.7003 90.2848C36.4053 90.8748 35.991 91.3338 35.4574 91.6619C34.9238 91.9901 34.299 92.1541 33.5831 92.1541ZM33.5881 90.9062C34.0521 90.9062 34.4366 90.7836 34.7415 90.5384C35.0464 90.2931 35.2718 89.9666 35.4176 89.5589C35.5668 89.1513 35.6413 88.7022 35.6413 88.2116C35.6413 87.7244 35.5668 87.277 35.4176 86.8693C35.2718 86.4583 35.0464 86.1286 34.7415 85.88C34.4366 85.6314 34.0521 85.5071 33.5881 85.5071C33.1207 85.5071 32.733 85.6314 32.4247 85.88C32.1198 86.1286 31.8928 86.4583 31.7436 86.8693C31.5978 87.277 31.5249 87.7244 31.5249 88.2116C31.5249 88.7022 31.5978 89.1513 31.7436 89.5589C31.8928 89.9666 32.1198 90.2931 32.4247 90.5384C32.733 90.7836 33.1207 90.9062 33.5881 90.9062ZM42.3667 84.3636V85.5568H38.1955V84.3636H42.3667ZM39.3141 82.5341H40.8006V89.7578C40.8006 90.0462 40.8437 90.2633 40.9299 90.4091C41.016 90.5516 41.1271 90.6494 41.263 90.7024C41.4022 90.7521 41.553 90.777 41.7154 90.777C41.8347 90.777 41.9391 90.7687 42.0286 90.7521C42.1181 90.7356 42.1877 90.7223 42.2374 90.7124L42.5059 91.9403C42.4197 91.9735 42.2971 92.0066 42.138 92.0398C41.9789 92.0762 41.78 92.0961 41.5414 92.0994C41.1503 92.1061 40.7857 92.0365 40.4476 91.8906C40.1096 91.7448 39.8361 91.5194 39.6273 91.2145C39.4185 90.9096 39.3141 90.5268 39.3141 90.0661V82.5341ZM44.011 92V84.3636H45.4975V92H44.011ZM44.7617 83.1854C44.5032 83.1854 44.2811 83.0992 44.0955 82.9268C43.9132 82.7512 43.8221 82.5424 43.8221 82.3004C43.8221 82.0552 43.9132 81.8464 44.0955 81.674C44.2811 81.4983 44.5032 81.4105 44.7617 81.4105C45.0202 81.4105 45.2406 81.4983 45.4229 81.674C45.6085 81.8464 45.7013 82.0552 45.7013 82.3004C45.7013 82.5424 45.6085 82.7512 45.4229 82.9268C45.2406 83.0992 45.0202 83.1854 44.7617 83.1854ZM51.1316 84.3636V85.5568H46.8162V84.3636H51.1316ZM47.9995 92V83.4787C47.9995 83.0014 48.1039 82.6053 48.3127 82.2905C48.5215 81.9723 48.7982 81.7353 49.1429 81.5795C49.4876 81.4205 49.8622 81.3409 50.2665 81.3409C50.5648 81.3409 50.82 81.3658 51.0321 81.4155C51.2443 81.4619 51.4017 81.505 51.5044 81.5447L51.1564 82.7479C51.0868 82.728 50.9973 82.7048 50.888 82.6783C50.7786 82.6484 50.646 82.6335 50.4902 82.6335C50.129 82.6335 49.8704 82.723 49.7147 82.902C49.5622 83.081 49.486 83.3395 49.486 83.6776V92H47.9995ZM52.6653 92V84.3636H54.1518V92H52.6653ZM53.416 83.1854C53.1575 83.1854 52.9354 83.0992 52.7498 82.9268C52.5675 82.7512 52.4764 82.5424 52.4764 82.3004C52.4764 82.0552 52.5675 81.8464 52.7498 81.674C52.9354 81.4983 53.1575 81.4105 53.416 81.4105C53.6745 81.4105 53.8949 81.4983 54.0772 81.674C54.2628 81.8464 54.3556 82.0552 54.3556 82.3004C54.3556 82.5424 54.2628 82.7512 54.0772 82.9268C53.8949 83.0992 53.6745 83.1854 53.416 83.1854ZM59.3683 92.1541C58.6291 92.1541 57.9928 91.9867 57.4592 91.652C56.9289 91.3139 56.5212 90.8482 56.2362 90.255C55.9511 89.6617 55.8086 88.9822 55.8086 88.2166C55.8086 87.4411 55.9544 86.7566 56.2461 86.1634C56.5378 85.5668 56.9487 85.1011 57.479 84.7663C58.0094 84.4316 58.6341 84.2642 59.3533 84.2642C59.9334 84.2642 60.4504 84.3719 60.9045 84.5874C61.3585 84.7995 61.7248 85.0978 62.0032 85.4822C62.2849 85.8667 62.4523 86.3158 62.5053 86.8295H61.0586C60.979 86.4716 60.7968 86.1634 60.5117 85.9048C60.23 85.6463 59.8522 85.517 59.3782 85.517C58.9639 85.517 58.601 85.6264 58.2894 85.8452C57.9812 86.0606 57.7409 86.3688 57.5685 86.7699C57.3962 87.1676 57.31 87.6383 57.31 88.1818C57.31 88.7386 57.3945 89.2192 57.5636 89.6236C57.7326 90.0279 57.9712 90.3411 58.2795 90.5632C58.591 90.7853 58.9573 90.8963 59.3782 90.8963C59.6599 90.8963 59.9151 90.8449 60.1438 90.7422C60.3758 90.6361 60.5697 90.4853 60.7255 90.2898C60.8846 90.0942 60.9956 89.8589 61.0586 89.5838H62.5053C62.4523 90.0777 62.2915 90.5185 62.0231 90.9062C61.7546 91.294 61.395 91.599 60.9442 91.821C60.4968 92.0431 59.9715 92.1541 59.3683 92.1541ZM66.3173 92.169C65.8334 92.169 65.3959 92.0795 65.0048 91.9006C64.6137 91.7183 64.3038 91.4548 64.0751 91.1101C63.8497 90.7654 63.737 90.3428 63.737 89.8423C63.737 89.4115 63.8199 89.0568 63.9856 88.7784C64.1513 88.5 64.3751 88.2796 64.6568 88.1172C64.9385 87.9548 65.2534 87.8321 65.6014 87.7493C65.9494 87.6664 66.304 87.6035 66.6653 87.5604C67.1227 87.5073 67.4939 87.4643 67.7789 87.4311C68.064 87.3946 68.2711 87.3366 68.4004 87.2571C68.5297 87.1776 68.5943 87.0483 68.5943 86.8693V86.8345C68.5943 86.4003 68.4717 86.0639 68.2264 85.8253C67.9844 85.5866 67.6232 85.4673 67.1426 85.4673C66.6421 85.4673 66.2477 85.5784 65.9593 85.8004C65.6743 86.0192 65.4771 86.2628 65.3677 86.5312L63.9707 86.2131C64.1364 85.7491 64.3784 85.3745 64.6966 85.0895C65.0181 84.8011 65.3876 84.5923 65.8052 84.4631C66.2228 84.3305 66.662 84.2642 67.1227 84.2642C67.4276 84.2642 67.7508 84.3007 68.0922 84.3736C68.4368 84.4432 68.7583 84.5724 69.0566 84.7614C69.3583 84.9503 69.6052 85.2204 69.7974 85.5717C69.9896 85.9197 70.0858 86.3722 70.0858 86.929V92H68.6341V90.956H68.5744C68.4783 91.1482 68.3341 91.3371 68.1419 91.5227C67.9496 91.7083 67.7027 91.8625 67.4011 91.9851C67.0995 92.1077 66.7382 92.169 66.3173 92.169ZM66.6404 90.9759C67.0514 90.9759 67.4028 90.8946 67.6944 90.7322C67.9894 90.5698 68.2131 90.3577 68.3656 90.0959C68.5214 89.8307 68.5993 89.5473 68.5993 89.2457V88.2614C68.5462 88.3144 68.4435 88.3641 68.291 88.4105C68.1419 88.4536 67.9712 88.4917 67.7789 88.5249C67.5867 88.5547 67.3994 88.5829 67.2172 88.6094C67.0349 88.6326 66.8824 88.6525 66.7598 88.669C66.4714 88.7055 66.2079 88.7668 65.9693 88.853C65.734 88.9392 65.545 89.0634 65.4025 89.2259C65.2633 89.3849 65.1937 89.5971 65.1937 89.8622C65.1937 90.2301 65.3296 90.5085 65.6014 90.6974C65.8732 90.883 66.2195 90.9759 66.6404 90.9759ZM75.6303 84.3636V85.5568H71.4592V84.3636H75.6303ZM72.5778 82.5341H74.0643V89.7578C74.0643 90.0462 74.1074 90.2633 74.1935 90.4091C74.2797 90.5516 74.3907 90.6494 74.5266 90.7024C74.6658 90.7521 74.8166 90.777 74.979 90.777C75.0984 90.777 75.2028 90.7687 75.2923 90.7521C75.3817 90.7356 75.4513 90.7223 75.5011 90.7124L75.7695 91.9403C75.6834 91.9735 75.5607 92.0066 75.4016 92.0398C75.2425 92.0762 75.0437 92.0961 74.805 92.0994C74.4139 92.1061 74.0494 92.0365 73.7113 91.8906C73.3732 91.7448 73.0998 91.5194 72.891 91.2145C72.6822 90.9096 72.5778 90.5268 72.5778 90.0661V82.5341ZM77.2747 92V84.3636H78.7612V92H77.2747ZM78.0254 83.1854C77.7669 83.1854 77.5448 83.0992 77.3592 82.9268C77.1769 82.7512 77.0858 82.5424 77.0858 82.3004C77.0858 82.0552 77.1769 81.8464 77.3592 81.674C77.5448 81.4983 77.7669 81.4105 78.0254 81.4105C78.2839 81.4105 78.5043 81.4983 78.6866 81.674C78.8722 81.8464 78.965 82.0552 78.965 82.3004C78.965 82.5424 78.8722 82.7512 78.6866 82.9268C78.5043 83.0992 78.2839 83.1854 78.0254 83.1854ZM83.9776 92.1541C83.2617 92.1541 82.637 91.9901 82.1033 91.6619C81.5697 91.3338 81.1554 90.8748 80.8604 90.2848C80.5655 89.6948 80.418 89.0054 80.418 88.2166C80.418 87.4245 80.5655 86.7318 80.8604 86.1385C81.1554 85.5452 81.5697 85.0845 82.1033 84.7564C82.637 84.4283 83.2617 84.2642 83.9776 84.2642C84.6935 84.2642 85.3183 84.4283 85.8519 84.7564C86.3855 85.0845 86.7998 85.5452 87.0948 86.1385C87.3898 86.7318 87.5373 87.4245 87.5373 88.2166C87.5373 89.0054 87.3898 89.6948 87.0948 90.2848C86.7998 90.8748 86.3855 91.3338 85.8519 91.6619C85.3183 91.9901 84.6935 92.1541 83.9776 92.1541ZM83.9826 90.9062C84.4466 90.9062 84.8311 90.7836 85.136 90.5384C85.4409 90.2931 85.6663 89.9666 85.8121 89.5589C85.9613 89.1513 86.0359 88.7022 86.0359 88.2116C86.0359 87.7244 85.9613 87.277 85.8121 86.8693C85.6663 86.4583 85.4409 86.1286 85.136 85.88C84.8311 85.6314 84.4466 85.5071 83.9826 85.5071C83.5153 85.5071 83.1275 85.6314 82.8192 85.88C82.5143 86.1286 82.2873 86.4583 82.1381 86.8693C81.9923 87.277 81.9194 87.7244 81.9194 88.2116C81.9194 88.7022 81.9923 89.1513 82.1381 89.5589C82.2873 89.9666 82.5143 90.2931 82.8192 90.5384C83.1275 90.7836 83.5153 90.9062 83.9826 90.9062ZM90.6831 87.4659V92H89.1966V84.3636H90.6234V85.6065H90.7179C90.8935 85.2022 91.1686 84.8774 91.5431 84.6321C91.921 84.3868 92.3966 84.2642 92.97 84.2642C93.4904 84.2642 93.9461 84.3736 94.3372 84.5923C94.7283 84.8078 95.0315 85.1293 95.247 85.5568C95.4624 85.9844 95.5701 86.513 95.5701 87.1428V92H94.0836V87.3217C94.0836 86.7682 93.9395 86.3357 93.6511 86.0241C93.3627 85.7093 92.9667 85.5518 92.4629 85.5518C92.1182 85.5518 91.8116 85.6264 91.5431 85.7756C91.278 85.9247 91.0675 86.1435 90.9118 86.4318C90.7593 86.7169 90.6831 87.0616 90.6831 87.4659ZM103.286 86.228L101.939 86.4666C101.882 86.2943 101.793 86.1302 101.67 85.9744C101.551 85.8187 101.389 85.6911 101.183 85.5916C100.978 85.4922 100.721 85.4425 100.412 85.4425C99.9915 85.4425 99.6402 85.5369 99.3585 85.7259C99.0768 85.9115 98.9359 86.1518 98.9359 86.4467C98.9359 86.7019 99.0304 86.9074 99.2193 87.0632C99.4082 87.219 99.7131 87.3466 100.134 87.446L101.347 87.7244C102.05 87.8868 102.573 88.1371 102.918 88.4751C103.263 88.8132 103.435 89.2524 103.435 89.7926C103.435 90.25 103.303 90.6577 103.037 91.0156C102.776 91.3703 102.409 91.6487 101.939 91.8509C101.471 92.053 100.93 92.1541 100.313 92.1541C99.4579 92.1541 98.7602 91.9718 98.22 91.6072C97.6797 91.2393 97.3483 90.7173 97.2257 90.0412L98.6625 89.8224C98.752 90.197 98.9359 90.4804 99.2143 90.6726C99.4927 90.8615 99.8556 90.956 100.303 90.956C100.79 90.956 101.18 90.8549 101.471 90.6527C101.763 90.4472 101.909 90.197 101.909 89.902C101.909 89.6634 101.819 89.4628 101.64 89.3004C101.465 89.138 101.195 89.0154 100.83 88.9325L99.5375 88.6491C98.8249 88.4867 98.2979 88.2282 97.9565 87.8736C97.6184 87.5189 97.4494 87.0698 97.4494 86.5263C97.4494 86.0755 97.5753 85.6811 97.8272 85.343C98.0791 85.005 98.4271 84.7415 98.8713 84.5526C99.3154 84.3603 99.8242 84.2642 100.398 84.2642C101.223 84.2642 101.872 84.4432 102.346 84.8011C102.82 85.1558 103.134 85.6314 103.286 86.228ZM112.339 84.3636V85.5568H108.168V84.3636H112.339ZM109.287 82.5341H110.773V89.7578C110.773 90.0462 110.816 90.2633 110.903 90.4091C110.989 90.5516 111.1 90.6494 111.236 90.7024C111.375 90.7521 111.526 90.777 111.688 90.777C111.807 90.777 111.912 90.7687 112.001 90.7521C112.091 90.7356 112.16 90.7223 112.21 90.7124L112.479 91.9403C112.392 91.9735 112.27 92.0066 112.111 92.0398C111.952 92.0762 111.753 92.0961 111.514 92.0994C111.123 92.1061 110.758 92.0365 110.42 91.8906C110.082 91.7448 109.809 91.5194 109.6 91.2145C109.391 90.9096 109.287 90.5268 109.287 90.0661V82.5341ZM117.118 92.1541C116.402 92.1541 115.778 91.9901 115.244 91.6619C114.71 91.3338 114.296 90.8748 114.001 90.2848C113.706 89.6948 113.559 89.0054 113.559 88.2166C113.559 87.4245 113.706 86.7318 114.001 86.1385C114.296 85.5452 114.71 85.0845 115.244 84.7564C115.778 84.4283 116.402 84.2642 117.118 84.2642C117.834 84.2642 118.459 84.4283 118.993 84.7564C119.526 85.0845 119.94 85.5452 120.235 86.1385C120.53 86.7318 120.678 87.4245 120.678 88.2166C120.678 89.0054 120.53 89.6948 120.235 90.2848C119.94 90.8748 119.526 91.3338 118.993 91.6619C118.459 91.9901 117.834 92.1541 117.118 92.1541ZM117.123 90.9062C117.587 90.9062 117.972 90.7836 118.277 90.5384C118.582 90.2931 118.807 89.9666 118.953 89.5589C119.102 89.1513 119.176 88.7022 119.176 88.2116C119.176 87.7244 119.102 87.277 118.953 86.8693C118.807 86.4583 118.582 86.1286 118.277 85.88C117.972 85.6314 117.587 85.5071 117.123 85.5071C116.656 85.5071 116.268 85.6314 115.96 85.88C115.655 86.1286 115.428 86.4583 115.279 86.8693C115.133 87.277 115.06 87.7244 115.06 88.2116C115.06 88.7022 115.133 89.1513 115.279 89.5589C115.428 89.9666 115.655 90.2931 115.96 90.5384C116.268 90.7836 116.656 90.9062 117.123 90.9062ZM126.982 94.8636C126.76 94.8636 126.558 94.8454 126.375 94.8089C126.193 94.7758 126.057 94.7393 125.968 94.6996L126.326 93.4815C126.597 93.5545 126.839 93.5859 127.051 93.576C127.264 93.5661 127.451 93.4865 127.613 93.3374C127.779 93.1882 127.925 92.9446 128.051 92.6065L128.235 92.0994L125.441 84.3636H127.032L128.966 90.2898H129.045L130.979 84.3636H132.575L129.428 93.0192C129.282 93.4169 129.096 93.7533 128.871 94.0284C128.646 94.3068 128.377 94.5156 128.066 94.6548C127.754 94.794 127.393 94.8636 126.982 94.8636ZM136.929 92.1541C136.213 92.1541 135.588 91.9901 135.055 91.6619C134.521 91.3338 134.107 90.8748 133.812 90.2848C133.517 89.6948 133.369 89.0054 133.369 88.2166C133.369 87.4245 133.517 86.7318 133.812 86.1385C134.107 85.5452 134.521 85.0845 135.055 84.7564C135.588 84.4283 136.213 84.2642 136.929 84.2642C137.645 84.2642 138.269 84.4283 138.803 84.7564C139.337 85.0845 139.751 85.5452 140.046 86.1385C140.341 86.7318 140.488 87.4245 140.488 88.2166C140.488 89.0054 140.341 89.6948 140.046 90.2848C139.751 90.8748 139.337 91.3338 138.803 91.6619C138.269 91.9901 137.645 92.1541 136.929 92.1541ZM136.934 90.9062C137.398 90.9062 137.782 90.7836 138.087 90.5384C138.392 90.2931 138.617 89.9666 138.763 89.5589C138.912 89.1513 138.987 88.7022 138.987 88.2116C138.987 87.7244 138.912 87.277 138.763 86.8693C138.617 86.4583 138.392 86.1286 138.087 85.88C137.782 85.6314 137.398 85.5071 136.934 85.5071C136.466 85.5071 136.079 85.6314 135.77 85.88C135.465 86.1286 135.238 86.4583 135.089 86.8693C134.943 87.277 134.871 87.7244 134.871 88.2116C134.871 88.7022 134.943 89.1513 135.089 89.5589C135.238 89.9666 135.465 90.2931 135.77 90.5384C136.079 90.7836 136.466 90.9062 136.934 90.9062ZM146.985 88.8331V84.3636H148.477V92H147.015V90.6776H146.935C146.76 91.0852 146.478 91.425 146.09 91.6967C145.706 91.9652 145.227 92.0994 144.653 92.0994C144.163 92.0994 143.729 91.9917 143.351 91.7763C142.976 91.5575 142.681 91.2344 142.466 90.8068C142.254 90.3793 142.148 89.8506 142.148 89.2209V84.3636H143.634V89.0419C143.634 89.5623 143.778 89.9766 144.067 90.2848C144.355 90.593 144.73 90.7472 145.19 90.7472C145.469 90.7472 145.746 90.6776 146.021 90.5384C146.299 90.3991 146.529 90.1887 146.712 89.907C146.897 89.6252 146.988 89.2673 146.985 88.8331ZM23.4858 104.466V109H21.9993V98.8182H23.4659V102.607H23.5604C23.7393 102.196 24.0128 101.869 24.3807 101.627C24.7486 101.385 25.2292 101.264 25.8224 101.264C26.3461 101.264 26.8035 101.372 27.1946 101.587C27.589 101.803 27.8939 102.124 28.1094 102.552C28.3281 102.976 28.4375 103.506 28.4375 104.143V109H26.951V104.322C26.951 103.762 26.8068 103.327 26.5185 103.019C26.2301 102.708 25.8291 102.552 25.3153 102.552C24.964 102.552 24.6491 102.626 24.3707 102.776C24.0956 102.925 23.8786 103.143 23.7195 103.432C23.5637 103.717 23.4858 104.062 23.4858 104.466ZM33.7124 109.154C32.96 109.154 32.312 108.993 31.7685 108.672C31.2282 108.347 30.8106 107.891 30.5156 107.305C30.224 106.715 30.0781 106.024 30.0781 105.232C30.0781 104.449 30.224 103.76 30.5156 103.163C30.8106 102.567 31.2216 102.101 31.7486 101.766C32.2789 101.432 32.8987 101.264 33.608 101.264C34.0388 101.264 34.4564 101.335 34.8608 101.478C35.2652 101.621 35.6281 101.844 35.9496 102.149C36.2711 102.454 36.5246 102.85 36.7102 103.337C36.8958 103.821 36.9886 104.41 36.9886 105.102V105.629H30.9183V104.516H35.532C35.532 104.125 35.4524 103.778 35.2933 103.477C35.1342 103.172 34.9105 102.931 34.6222 102.756C34.3371 102.58 34.0024 102.492 33.6179 102.492C33.2003 102.492 32.8357 102.595 32.5241 102.8C32.2159 103.003 31.9773 103.268 31.8082 103.596C31.6425 103.921 31.5597 104.274 31.5597 104.655V105.525C31.5597 106.035 31.6491 106.469 31.8281 106.827C32.0104 107.185 32.264 107.459 32.5888 107.648C32.9136 107.833 33.2931 107.926 33.7273 107.926C34.009 107.926 34.2659 107.886 34.4979 107.807C34.7299 107.724 34.9304 107.601 35.0994 107.439C35.2685 107.277 35.3977 107.076 35.4872 106.837L36.8942 107.091C36.7815 107.505 36.5793 107.868 36.2876 108.18C35.9993 108.488 35.6364 108.728 35.1989 108.901C34.7647 109.07 34.2692 109.154 33.7124 109.154ZM38.638 109V101.364H40.0748V102.577H40.1543C40.2935 102.166 40.5388 101.843 40.8901 101.607C41.2447 101.369 41.6458 101.249 42.0932 101.249C42.186 101.249 42.2954 101.253 42.4213 101.259C42.5506 101.266 42.6517 101.274 42.7246 101.284V102.706C42.665 102.689 42.5589 102.671 42.4064 102.651C42.254 102.628 42.1015 102.616 41.949 102.616C41.5977 102.616 41.2845 102.691 41.0094 102.84C40.7376 102.986 40.5222 103.19 40.3631 103.452C40.204 103.71 40.1245 104.005 40.1245 104.337V109H38.638ZM47.0288 109.154C46.2764 109.154 45.6284 108.993 45.0849 108.672C44.5446 108.347 44.127 107.891 43.832 107.305C43.5404 106.715 43.3945 106.024 43.3945 105.232C43.3945 104.449 43.5404 103.76 43.832 103.163C44.127 102.567 44.538 102.101 45.065 101.766C45.5953 101.432 46.2151 101.264 46.9244 101.264C47.3552 101.264 47.7728 101.335 48.1772 101.478C48.5816 101.621 48.9445 101.844 49.266 102.149C49.5875 102.454 49.841 102.85 50.0266 103.337C50.2122 103.821 50.305 104.41 50.305 105.102V105.629H44.2347V104.516H48.8484C48.8484 104.125 48.7688 103.778 48.6097 103.477C48.4506 103.172 48.2269 102.931 47.9386 102.756C47.6535 102.58 47.3188 102.492 46.9343 102.492C46.5167 102.492 46.1521 102.595 45.8406 102.8C45.5323 103.003 45.2937 103.268 45.1246 103.596C44.9589 103.921 44.8761 104.274 44.8761 104.655V105.525C44.8761 106.035 44.9656 106.469 45.1445 106.827C45.3268 107.185 45.5804 107.459 45.9052 107.648C46.23 107.833 46.6095 107.926 47.0437 107.926C47.3254 107.926 47.5823 107.886 47.8143 107.807C48.0463 107.724 48.2468 107.601 48.4158 107.439C48.5849 107.277 48.7141 107.076 48.8036 106.837L50.2106 107.091C50.0979 107.505 49.8957 107.868 49.604 108.18C49.3157 108.488 48.9528 108.728 48.5153 108.901C48.0811 109.07 47.5856 109.154 47.0288 109.154Z" fill="#19191A"/>
<path d="M42 28.333C42 26.4765 41.2625 24.696 39.9497 23.3833C38.637 22.0705 36.8565 21.333 35 21.333C33.1435 21.333 31.363 22.0705 30.0503 23.3833C28.7375 24.696 28 26.4765 28 28.333C28 36.4997 24.5 38.833 24.5 38.833H45.5C45.5 38.833 42 36.4997 42 28.333Z" fill="#165DFF" fill-opacity="0.1" stroke="black" stroke-width="1.4" stroke-linecap="round" stroke-linejoin="round"/>
<path d="M37.0181 43.5C36.813 43.8536 36.5186 44.1471 36.1644 44.3511C35.8102 44.5551 35.4086 44.6625 34.9998 44.6625C34.591 44.6625 34.1894 44.5551 33.8352 44.3511C33.481 44.1471 33.1866 43.8536 32.9814 43.5" stroke="black" stroke-width="1.4" stroke-linecap="round" stroke-linejoin="round"/>
<rect x="21.35" y="127.85" width="161" height="34.3" rx="5.25" fill="white"/>
<rect x="21.35" y="127.85" width="161" height="34.3" rx="5.25" stroke="#D4D4D4" stroke-width="0.7"/>
<path d="M165.824 23.2012C165.793 22.919 165.666 22.6992 165.442 22.5419C165.22 22.3847 164.932 22.306 164.576 22.306C164.326 22.306 164.112 22.3437 163.933 22.4191C163.754 22.4945 163.618 22.5969 163.523 22.7261C163.428 22.8554 163.379 23.003 163.377 23.1689C163.377 23.3067 163.409 23.4263 163.471 23.5276C163.536 23.6288 163.623 23.715 163.733 23.7861C163.843 23.855 163.964 23.9132 164.098 23.9606C164.232 24.008 164.366 24.0478 164.502 24.0801L165.122 24.2353C165.372 24.2934 165.612 24.3721 165.843 24.4712C166.076 24.5703 166.284 24.6952 166.467 24.846C166.652 24.9968 166.798 25.1789 166.906 25.3922C167.014 25.6054 167.068 25.8553 167.068 26.1419C167.068 26.5297 166.969 26.8711 166.77 27.1663C166.572 27.4593 166.286 27.6887 165.911 27.8546C165.538 28.0183 165.087 28.1002 164.557 28.1002C164.042 28.1002 163.595 28.0205 163.216 27.861C162.839 27.7016 162.544 27.469 162.33 27.163C162.119 26.8571 162.005 26.4844 161.988 26.0449H163.167C163.185 26.2754 163.256 26.4672 163.381 26.6201C163.506 26.7731 163.668 26.8873 163.869 26.9627C164.071 27.0381 164.297 27.0758 164.547 27.0758C164.808 27.0758 165.036 27.037 165.232 26.9594C165.43 26.8797 165.586 26.7699 165.698 26.6298C165.81 26.4876 165.867 26.3218 165.869 26.1322C165.867 25.9598 165.816 25.8176 165.717 25.7056C165.618 25.5914 165.479 25.4966 165.3 25.4212C165.123 25.3437 164.917 25.2747 164.68 25.2144L163.927 25.0205C163.382 24.8805 162.951 24.6683 162.634 24.3839C162.32 24.0974 162.162 23.7171 162.162 23.2432C162.162 22.8532 162.268 22.5118 162.479 22.2188C162.692 21.9258 162.982 21.6985 163.348 21.5369C163.714 21.3732 164.129 21.2913 164.592 21.2913C165.062 21.2913 165.474 21.3732 165.827 21.5369C166.182 21.6985 166.461 21.9236 166.664 22.2123C166.866 22.4989 166.971 22.8285 166.977 23.2012H165.824ZM169.513 28.1002C169.199 28.1002 168.915 28.0442 168.663 27.9321C168.413 27.818 168.215 27.6499 168.069 27.428C167.924 27.2061 167.852 26.9325 167.852 26.6072C167.852 26.3271 167.904 26.0955 168.007 25.9124C168.111 25.7293 168.252 25.5828 168.431 25.4729C168.609 25.3631 168.811 25.2801 169.035 25.2241C169.261 25.1659 169.495 25.1239 169.736 25.0981C170.027 25.0679 170.263 25.041 170.444 25.0173C170.625 24.9914 170.756 24.9527 170.838 24.901C170.922 24.8471 170.964 24.7642 170.964 24.6521V24.6327C170.964 24.3893 170.892 24.2008 170.748 24.0672C170.603 23.9337 170.395 23.8669 170.124 23.8669C169.837 23.8669 169.61 23.9293 169.442 24.0543C169.276 24.1792 169.164 24.3268 169.106 24.497L168.014 24.3419C168.1 24.0403 168.242 23.7882 168.44 23.5857C168.639 23.3811 168.881 23.2281 169.167 23.1268C169.454 23.0234 169.771 22.9717 170.117 22.9717C170.357 22.9717 170.595 22.9997 170.832 23.0558C171.069 23.1118 171.285 23.2044 171.481 23.3337C171.677 23.4608 171.835 23.6342 171.953 23.8539C172.074 24.0737 172.134 24.3484 172.134 24.678V28H171.009V27.3181H170.971C170.9 27.456 170.799 27.5853 170.67 27.7059C170.543 27.8244 170.382 27.9203 170.189 27.9935C169.997 28.0646 169.772 28.1002 169.513 28.1002ZM169.817 27.2406C170.052 27.2406 170.255 27.1943 170.428 27.1016C170.6 27.0068 170.733 26.8819 170.825 26.7268C170.92 26.5717 170.967 26.4025 170.967 26.2194V25.6345C170.931 25.6647 170.868 25.6927 170.78 25.7185C170.694 25.7444 170.597 25.767 170.489 25.7864C170.381 25.8058 170.275 25.823 170.169 25.8381C170.064 25.8532 169.972 25.8661 169.895 25.8769C169.72 25.9006 169.564 25.9394 169.426 25.9932C169.288 26.0471 169.179 26.1225 169.1 26.2194C169.02 26.3142 168.98 26.437 168.98 26.5878C168.98 26.8033 169.059 26.9659 169.216 27.0758C169.373 27.1857 169.574 27.2406 169.817 27.2406ZM177.566 23.0364L175.799 28H174.506L172.738 23.0364H173.986L175.126 26.7235H175.178L176.322 23.0364H177.566ZM180.404 28.0969C179.907 28.0969 179.477 27.9935 179.115 27.7867C178.755 27.5777 178.478 27.2826 178.284 26.9013C178.09 26.5178 177.994 26.0665 177.994 25.5473C177.994 25.0367 178.09 24.5886 178.284 24.2029C178.48 23.8152 178.754 23.5136 179.105 23.2981C179.456 23.0805 179.869 22.9717 180.343 22.9717C180.649 22.9717 180.937 23.0213 181.209 23.1204C181.483 23.2173 181.724 23.3681 181.933 23.5728C182.144 23.7775 182.31 24.0381 182.43 24.3548C182.551 24.6694 182.611 25.0442 182.611 25.4794V25.8381H178.543V25.0496H181.49C181.488 24.8256 181.439 24.6263 181.345 24.4518C181.25 24.2751 181.117 24.1362 180.947 24.0349C180.779 23.9337 180.583 23.883 180.359 23.883C180.12 23.883 179.91 23.9412 179.729 24.0575C179.548 24.1717 179.407 24.3225 179.306 24.5099C179.206 24.6952 179.156 24.8988 179.154 25.1207V25.809C179.154 26.0977 179.206 26.3455 179.312 26.5523C179.418 26.7569 179.565 26.9142 179.755 27.0241C179.944 27.1318 180.166 27.1857 180.42 27.1857C180.591 27.1857 180.745 27.162 180.883 27.1146C181.02 27.065 181.14 26.9928 181.241 26.898C181.342 26.8033 181.419 26.6858 181.471 26.5458L182.563 26.6686C182.494 26.9573 182.363 27.2094 182.169 27.4248C181.977 27.6381 181.731 27.804 181.432 27.9224C181.132 28.0388 180.79 28.0969 180.404 28.0969Z" fill="#19191A"/>
</g>
<defs>
<filter id="filter0_dd_1_394" x="0" y="0.8" width="203.7" height="185.5" filterUnits="userSpaceOnUse" color-interpolation-filters="sRGB">
<feFlood flood-opacity="0" result="BackgroundImageFix"/>
<feColorMatrix in="SourceAlpha" type="matrix" values="0 0 0 0 0 0 0 0 0 0 0 0 0 0 0 0 0 0 127 0" result="hardAlpha"/>
<feOffset dy="0.7"/>
<feGaussianBlur stdDeviation="0.35"/>
<feComposite in2="hardAlpha" operator="out"/>
<feColorMatrix type="matrix" values="0 0 0 0 0 0 0 0 0 0 0 0 0 0 0 0 0 0 0.04 0"/>
<feBlend mode="normal" in2="BackgroundImageFix" result="effect1_dropShadow_1_394"/>
<feColorMatrix in="SourceAlpha" type="matrix" values="0 0 0 0 0 0 0 0 0 0 0 0 0 0 0 0 0 0 127 0" result="hardAlpha"/>
<feOffset dy="2.8"/>
<feGaussianBlur stdDeviation="3.5"/>
<feComposite in2="hardAlpha" operator="out"/>
<feColorMatrix type="matrix" values="0 0 0 0 0 0 0 0 0 0 0 0 0 0 0 0 0 0 0.04 0"/>
<feBlend mode="normal" in2="effect1_dropShadow_1_394" result="effect2_dropShadow_1_394"/>
<feBlend mode="normal" in="SourceGraphic" in2="effect2_dropShadow_1_394" result="shape"/>
</filter>
<linearGradient id="paint0_linear_1_394" x1="101.85" y1="52.1625" x2="101.85" y2="275.47" gradientUnits="userSpaceOnUse">
<stop stop-color="white"/>
<stop offset="1" stop-color="#165DFF" stop-opacity="0.81"/>
</linearGradient>
</defs>
</svg>
