<svg width="205" height="187" viewBox="0 0 205 187" fill="none" xmlns="http://www.w3.org/2000/svg">
<g filter="url(#filter0_dd_1_367)">
<rect x="7.7002" y="5" width="189.7" height="171.5" rx="8.4" fill="white" shape-rendering="crispEdges"/>
<rect x="169.4" y="19" width="14" height="14" rx="4.2" fill="#0071E3"/>
<path d="M175.665 29.3277C175.97 29.3277 176.2 29.2106 176.356 28.9763L179.736 23.8837C179.792 23.8007 179.833 23.7189 179.86 23.6384C179.887 23.5554 179.9 23.4761 179.9 23.4004C179.9 23.1905 179.827 23.0172 179.681 22.8806C179.537 22.7414 179.359 22.6719 179.146 22.6719C179 22.6719 178.875 22.7012 178.773 22.7597C178.673 22.8159 178.578 22.9135 178.487 23.0526L175.65 27.5082L174.229 25.8058C174.076 25.6276 173.883 25.5385 173.651 25.5385C173.434 25.5385 173.254 25.6081 173.113 25.7472C172.971 25.8863 172.9 26.0608 172.9 26.2707C172.9 26.3659 172.915 26.4562 172.944 26.5416C172.976 26.6246 173.033 26.7113 173.116 26.8016L175.002 29.0239C175.175 29.2264 175.396 29.3277 175.665 29.3277Z" fill="white"/>
<rect x="21.7002" y="142.9" width="66.4" height="19.6" rx="2.8" fill="#E5E5E6" fill-opacity="0.5"/>
<path d="M28.5793 156.928V148.655H29.1093V156.928H28.5793ZM30.2371 151.221C30.2026 150.915 30.0605 150.678 29.8105 150.51C29.5606 150.34 29.2461 150.255 28.8669 150.255C28.5955 150.255 28.3607 150.298 28.1625 150.384C27.9643 150.468 27.8102 150.584 27.7004 150.733C27.5926 150.88 27.5388 151.046 27.5388 151.234C27.5388 151.391 27.5754 151.527 27.6487 151.641C27.7241 151.755 27.8221 151.851 27.9427 151.929C28.0655 152.004 28.1969 152.068 28.337 152.119C28.477 152.169 28.6116 152.21 28.7409 152.242L29.3872 152.41C29.5983 152.462 29.8149 152.532 30.0368 152.62C30.2587 152.709 30.4644 152.825 30.654 152.969C30.8436 153.114 30.9965 153.292 31.1129 153.506C31.2313 153.719 31.2906 153.974 31.2906 154.272C31.2906 154.646 31.1936 154.979 30.9998 155.27C30.808 155.561 30.529 155.79 30.1628 155.958C29.7987 156.126 29.3581 156.21 28.8411 156.21C28.3456 156.21 27.9169 156.132 27.5549 155.975C27.193 155.817 26.9097 155.594 26.705 155.306C26.5004 155.015 26.3873 154.67 26.3657 154.272H27.3675C27.3869 154.511 27.4645 154.71 27.6002 154.869C27.7381 155.027 27.9136 155.144 28.1269 155.222C28.3424 155.297 28.5783 155.335 28.8346 155.335C29.1168 155.335 29.3678 155.291 29.5876 155.202C29.8095 155.112 29.984 154.987 30.1111 154.827C30.2382 154.666 30.3017 154.477 30.3017 154.262C30.3017 154.066 30.2457 153.905 30.1337 153.78C30.0238 153.655 29.8741 153.552 29.6845 153.47C29.4971 153.388 29.2849 153.316 29.0479 153.254L28.2659 153.04C27.7359 152.896 27.3158 152.684 27.0056 152.404C26.6975 152.124 26.5435 151.753 26.5435 151.292C26.5435 150.911 26.6469 150.578 26.8537 150.294C27.0605 150.009 27.3406 149.788 27.6939 149.631C28.0472 149.472 28.4458 149.392 28.8896 149.392C29.3377 149.392 29.733 149.471 30.0755 149.628C30.4202 149.785 30.6917 150.002 30.8899 150.277C31.0881 150.551 31.1915 150.866 31.2001 151.221H30.2371ZM34.9043 149.482V156.101H33.9025V150.484H33.8637L32.2802 151.518V150.562L33.9316 149.482H34.9043ZM37.5824 155.196L37.5339 155.548C37.5016 155.807 37.4467 156.076 37.3691 156.356C37.2937 156.638 37.2151 156.9 37.1332 157.141C37.0535 157.382 36.9878 157.574 36.9361 157.716H36.251C36.279 157.583 36.3178 157.402 36.3673 157.173C36.4169 156.947 36.4654 156.694 36.5127 156.414C36.5601 156.134 36.5957 155.849 36.6194 155.558L36.6517 155.196H37.5824ZM40.9981 156.21C40.4875 156.208 40.0513 156.074 39.6893 155.807C39.3274 155.539 39.0506 155.151 38.8588 154.64C38.6671 154.129 38.5712 153.514 38.5712 152.795C38.5712 152.077 38.6671 151.464 38.8588 150.956C39.0527 150.448 39.3306 150.06 39.6926 149.793C40.0567 149.525 40.4918 149.392 40.9981 149.392C41.5044 149.392 41.9385 149.527 42.3004 149.796C42.6624 150.063 42.9392 150.451 43.1309 150.959C43.3248 151.465 43.4218 152.077 43.4218 152.795C43.4218 153.516 43.3259 154.133 43.1342 154.643C42.9424 155.152 42.6656 155.54 42.3037 155.81C41.9417 156.077 41.5065 156.21 40.9981 156.21ZM40.9981 155.348C41.4462 155.348 41.7963 155.129 42.0484 154.692C42.3026 154.254 42.4297 153.622 42.4297 152.795C42.4297 152.245 42.3715 151.781 42.2552 151.402C42.141 151.021 41.9762 150.732 41.7608 150.536C41.5475 150.338 41.2933 150.239 40.9981 150.239C40.5522 150.239 40.2021 150.458 39.9479 150.898C39.6937 151.337 39.5655 151.97 39.5633 152.795C39.5633 153.346 39.6204 153.813 39.7346 154.194C39.8509 154.573 40.0157 154.861 40.229 155.057C40.4423 155.251 40.6987 155.348 40.9981 155.348ZM46.8722 156.21C46.3617 156.208 45.9254 156.074 45.5635 155.807C45.2015 155.539 44.9247 155.151 44.733 154.64C44.5412 154.129 44.4454 153.514 44.4454 152.795C44.4454 152.077 44.5412 151.464 44.733 150.956C44.9269 150.448 45.2048 150.06 45.5667 149.793C45.9308 149.525 46.366 149.392 46.8722 149.392C47.3785 149.392 47.8126 149.527 48.1745 149.796C48.5365 150.063 48.8133 150.451 49.005 150.959C49.1989 151.465 49.2959 152.077 49.2959 152.795C49.2959 153.516 49.2 154.133 49.0083 154.643C48.8165 155.152 48.5397 155.54 48.1778 155.81C47.8158 156.077 47.3807 156.21 46.8722 156.21ZM46.8722 155.348C47.3203 155.348 47.6704 155.129 47.9225 154.692C48.1767 154.254 48.3038 153.622 48.3038 152.795C48.3038 152.245 48.2456 151.781 48.1293 151.402C48.0151 151.021 47.8503 150.732 47.6349 150.536C47.4216 150.338 47.1674 150.239 46.8722 150.239C46.4263 150.239 46.0762 150.458 45.822 150.898C45.5678 151.337 45.4396 151.97 45.4374 152.795C45.4374 153.346 45.4945 153.813 45.6087 154.194C45.725 154.573 45.8899 154.861 46.1031 155.057C46.3164 155.251 46.5728 155.348 46.8722 155.348ZM52.7464 156.21C52.2358 156.208 51.7995 156.074 51.4376 155.807C51.0757 155.539 50.7988 155.151 50.6071 154.64C50.4153 154.129 50.3195 153.514 50.3195 152.795C50.3195 152.077 50.4153 151.464 50.6071 150.956C50.801 150.448 51.0789 150.06 51.4408 149.793C51.8049 149.525 52.2401 149.392 52.7464 149.392C53.2526 149.392 53.6867 149.527 54.0487 149.796C54.4106 150.063 54.6874 150.451 54.8792 150.959C55.0731 151.465 55.17 152.077 55.17 152.795C55.17 153.516 55.0741 154.133 54.8824 154.643C54.6907 155.152 54.4138 155.54 54.0519 155.81C53.69 156.077 53.2548 156.21 52.7464 156.21ZM52.7464 155.348C53.1945 155.348 53.5445 155.129 53.7966 154.692C54.0508 154.254 54.1779 153.622 54.1779 152.795C54.1779 152.245 54.1198 151.781 54.0034 151.402C53.8892 151.021 53.7244 150.732 53.509 150.536C53.2957 150.338 53.0415 150.239 52.7464 150.239C52.3004 150.239 51.9503 150.458 51.6961 150.898C51.4419 151.337 51.3137 151.97 51.3116 152.795C51.3116 153.346 51.3686 153.813 51.4828 154.194C51.5992 154.573 51.764 154.861 51.9773 155.057C52.1905 155.251 52.4469 155.348 52.7464 155.348ZM56.726 156.162C56.5493 156.162 56.3975 156.1 56.2703 155.975C56.1432 155.847 56.0797 155.694 56.0797 155.516C56.0797 155.339 56.1432 155.188 56.2703 155.063C56.3975 154.936 56.5493 154.873 56.726 154.873C56.9026 154.873 57.0545 154.936 57.1816 155.063C57.3087 155.188 57.3723 155.339 57.3723 155.516C57.3723 155.634 57.3421 155.743 57.2818 155.842C57.2236 155.939 57.1461 156.017 57.0491 156.075C56.9522 156.133 56.8445 156.162 56.726 156.162ZM60.7177 156.21C60.2072 156.208 59.7709 156.074 59.409 155.807C59.047 155.539 58.7702 155.151 58.5785 154.64C58.3867 154.129 58.2909 153.514 58.2909 152.795C58.2909 152.077 58.3867 151.464 58.5785 150.956C58.7724 150.448 59.0503 150.06 59.4122 149.793C59.7763 149.525 60.2115 149.392 60.7177 149.392C61.224 149.392 61.6581 149.527 62.0201 149.796C62.382 150.063 62.6588 150.451 62.8506 150.959C63.0444 151.465 63.1414 152.077 63.1414 152.795C63.1414 153.516 63.0455 154.133 62.8538 154.643C62.6621 155.152 62.3852 155.54 62.0233 155.81C61.6614 156.077 61.2262 156.21 60.7177 156.21ZM60.7177 155.348C61.1659 155.348 61.5159 155.129 61.768 154.692C62.0222 154.254 62.1493 153.622 62.1493 152.795C62.1493 152.245 62.0911 151.781 61.9748 151.402C61.8606 151.021 61.6958 150.732 61.4804 150.536C61.2671 150.338 61.0129 150.239 60.7177 150.239C60.2718 150.239 59.9217 150.458 59.6675 150.898C59.4133 151.337 59.2851 151.97 59.2829 152.795C59.2829 153.346 59.34 153.813 59.4542 154.194C59.5705 154.573 59.7354 154.861 59.9486 155.057C60.1619 155.251 60.4183 155.348 60.7177 155.348ZM66.5919 156.21C66.0813 156.208 65.645 156.074 65.2831 155.807C64.9212 155.539 64.6443 155.151 64.4526 154.64C64.2609 154.129 64.165 153.514 64.165 152.795C64.165 152.077 64.2609 151.464 64.4526 150.956C64.6465 150.448 64.9244 150.06 65.2863 149.793C65.6504 149.525 66.0856 149.392 66.5919 149.392C67.0981 149.392 67.5322 149.527 67.8942 149.796C68.2561 150.063 68.5329 150.451 68.7247 150.959C68.9186 151.465 69.0155 152.077 69.0155 152.795C69.0155 153.516 68.9196 154.133 68.7279 154.643C68.5362 155.152 68.2593 155.54 67.8974 155.81C67.5355 156.077 67.1003 156.21 66.5919 156.21ZM66.5919 155.348C67.04 155.348 67.3901 155.129 67.6421 154.692C67.8963 154.254 68.0234 153.622 68.0234 152.795C68.0234 152.245 67.9653 151.781 67.8489 151.402C67.7348 151.021 67.5699 150.732 67.3545 150.536C67.1412 150.338 66.887 150.239 66.5919 150.239C66.1459 150.239 65.7958 150.458 65.5416 150.898C65.2874 151.337 65.1592 151.97 65.1571 152.795C65.1571 153.346 65.2142 153.813 65.3283 154.194C65.4447 154.573 65.6095 154.861 65.8228 155.057C66.036 155.251 66.2924 155.348 66.5919 155.348Z" fill="#313233"/>
<path d="M75.7997 151.6L78.1772 153.977C78.2455 154.045 78.3563 154.045 78.4247 153.977L80.8021 151.6C80.9124 151.489 80.8343 151.301 80.6784 151.301H75.9234C75.7675 151.301 75.6894 151.489 75.7997 151.6Z" fill="#96979A"/>
<path d="M44.0996 44.9004V30.9004" stroke="black" stroke-width="1.4" stroke-linecap="round" stroke-linejoin="round"/>
<path d="M35.7002 44.9V22.5" stroke="black" stroke-width="1.4" stroke-linecap="round" stroke-linejoin="round"/>
<path d="M27.2998 44.9V36.5" stroke="black" stroke-width="1.4" stroke-linecap="round" stroke-linejoin="round"/>
</g>
<path d="M29.1695 105.154V113.3H28.04L23.8996 107.326H23.8241V113.3H22.5951V105.154H23.7326L27.8769 111.136H27.9525V105.154H29.1695ZM33.4401 113.423C32.8674 113.423 32.3676 113.292 31.9407 113.029C31.5138 112.767 31.1823 112.4 30.9464 111.928C30.7104 111.456 30.5924 110.904 30.5924 110.273C30.5924 109.639 30.7104 109.085 30.9464 108.611C31.1823 108.136 31.5138 107.767 31.9407 107.505C32.3676 107.242 32.8674 107.111 33.4401 107.111C34.0128 107.111 34.5126 107.242 34.9395 107.505C35.3664 107.767 35.6979 108.136 35.9339 108.611C36.1698 109.085 36.2878 109.639 36.2878 110.273C36.2878 110.904 36.1698 111.456 35.9339 111.928C35.6979 112.4 35.3664 112.767 34.9395 113.029C34.5126 113.292 34.0128 113.423 33.4401 113.423ZM33.4441 112.425C33.8153 112.425 34.1229 112.327 34.3668 112.13C34.6108 111.934 34.7911 111.673 34.9077 111.347C35.027 111.021 35.0867 110.662 35.0867 110.269C35.0867 109.879 35.027 109.521 34.9077 109.195C34.7911 108.866 34.6108 108.603 34.3668 108.404C34.1229 108.205 33.8153 108.105 33.4441 108.105C33.0702 108.105 32.76 108.205 32.5134 108.404C32.2695 108.603 32.0878 108.866 31.9685 109.195C31.8519 109.521 31.7935 109.879 31.7935 110.269C31.7935 110.662 31.8519 111.021 31.9685 111.347C32.0878 111.673 32.2695 111.934 32.5134 112.13C32.76 112.327 33.0702 112.425 33.4441 112.425ZM40.467 107.191V108.145H37.13V107.191H40.467ZM38.0249 105.727H39.2141V111.506C39.2141 111.737 39.2486 111.91 39.3175 112.027C39.3865 112.141 39.4753 112.219 39.584 112.262C39.6954 112.302 39.816 112.321 39.9459 112.321C40.0414 112.321 40.1249 112.315 40.1965 112.302C40.2681 112.288 40.3238 112.278 40.3635 112.27L40.5783 113.252C40.5094 113.279 40.4113 113.305 40.284 113.332C40.1567 113.361 39.9976 113.377 39.8067 113.379C39.4939 113.385 39.2022 113.329 38.9317 113.212C38.6613 113.096 38.4425 112.915 38.2755 112.671C38.1084 112.427 38.0249 112.121 38.0249 111.753V105.727ZM41.7824 113.3V107.191H42.9716V113.3H41.7824ZM42.383 106.248C42.1762 106.248 41.9985 106.179 41.8501 106.041C41.7042 105.901 41.6313 105.734 41.6313 105.54C41.6313 105.344 41.7042 105.177 41.8501 105.039C41.9985 104.898 42.1762 104.828 42.383 104.828C42.5898 104.828 42.7662 104.898 42.912 105.039C43.0605 105.177 43.1347 105.344 43.1347 105.54C43.1347 105.734 43.0605 105.901 42.912 106.041C42.7662 106.179 42.5898 106.248 42.383 106.248ZM47.4789 107.191V108.145H44.0266V107.191H47.4789ZM44.9732 113.3V106.483C44.9732 106.101 45.0567 105.784 45.2238 105.532C45.3908 105.278 45.6122 105.088 45.888 104.963C46.1637 104.836 46.4634 104.773 46.7868 104.773C47.0255 104.773 47.2296 104.792 47.3993 104.832C47.569 104.869 47.695 104.904 47.7772 104.936L47.4988 105.898C47.4431 105.882 47.3715 105.864 47.284 105.842C47.1965 105.819 47.0904 105.807 46.9658 105.807C46.6768 105.807 46.47 105.878 46.3454 106.021C46.2234 106.165 46.1624 106.371 46.1624 106.642V113.3H44.9732ZM49.4576 115.591C49.2799 115.591 49.1182 115.576 48.9724 115.547C48.8265 115.52 48.7178 115.491 48.6462 115.459L48.9326 114.485C49.15 114.543 49.3436 114.569 49.5133 114.561C49.683 114.553 49.8328 114.489 49.9627 114.37C50.0953 114.25 50.2119 114.055 50.3127 113.785L50.4599 113.379L48.2246 107.191H49.4974L51.0445 111.932H51.1081L52.6553 107.191H53.932L51.4144 114.115C51.2977 114.433 51.1492 114.702 50.9689 114.923C50.7886 115.145 50.5739 115.312 50.3246 115.424C50.0754 115.535 49.7864 115.591 49.4576 115.591ZM58.0137 113.3V107.191H59.1552V108.185H59.2307C59.358 107.848 59.5662 107.586 59.8552 107.398C60.1442 107.207 60.4902 107.111 60.8932 107.111C61.3016 107.111 61.6436 107.207 61.9194 107.398C62.1978 107.588 62.4033 107.851 62.5358 108.185H62.5995C62.7453 107.859 62.9773 107.599 63.2955 107.405C63.6137 107.209 63.9929 107.111 64.433 107.111C64.9872 107.111 65.4393 107.285 65.7893 107.632C66.1419 107.98 66.3182 108.503 66.3182 109.203V113.3H65.129V109.315C65.129 108.901 65.0163 108.601 64.791 108.416C64.5656 108.23 64.2965 108.137 63.9836 108.137C63.5965 108.137 63.2955 108.257 63.0807 108.495C62.866 108.731 62.7586 109.035 62.7586 109.406V113.3H61.5733V109.239C61.5733 108.908 61.4699 108.641 61.2631 108.44C61.0563 108.238 60.7872 108.137 60.4557 108.137C60.2304 108.137 60.0222 108.197 59.8313 108.316C59.643 108.433 59.4906 108.596 59.3739 108.805C59.2599 109.015 59.2029 109.258 59.2029 109.533V113.3H58.0137ZM70.5451 113.423C69.9432 113.423 69.4248 113.295 68.99 113.037C68.5578 112.777 68.2237 112.413 67.9877 111.944C67.7544 111.472 67.6377 110.919 67.6377 110.285C67.6377 109.659 67.7544 109.108 67.9877 108.63C68.2237 108.153 68.5525 107.781 68.9741 107.513C69.3983 107.245 69.8941 107.111 70.4616 107.111C70.8063 107.111 71.1403 107.168 71.4638 107.282C71.7873 107.396 72.0777 107.575 72.3349 107.819C72.592 108.063 72.7949 108.38 72.9434 108.77C73.0919 109.157 73.1661 109.627 73.1661 110.182V110.603H68.3099V109.712H72.0008C72.0008 109.399 71.9371 109.122 71.8099 108.881C71.6826 108.637 71.5036 108.445 71.2729 108.304C71.0449 108.164 70.7771 108.094 70.4695 108.094C70.1354 108.094 69.8438 108.176 69.5945 108.34C69.3479 108.502 69.157 108.714 69.0218 108.977C68.8892 109.236 68.8229 109.519 68.8229 109.824V110.52C68.8229 110.928 68.8945 111.275 69.0377 111.562C69.1835 111.848 69.3864 112.067 69.6462 112.218C69.9061 112.366 70.2097 112.441 70.557 112.441C70.7824 112.441 70.9879 112.409 71.1735 112.345C71.3591 112.279 71.5195 112.181 71.6547 112.051C71.79 111.921 71.8934 111.761 71.965 111.57L73.0905 111.773C73.0004 112.104 72.8386 112.394 72.6053 112.644C72.3746 112.89 72.0843 113.082 71.7343 113.22C71.3869 113.355 70.9905 113.423 70.5451 113.423ZM78.7741 113.3L76.9763 107.191H78.2053L79.4025 111.677H79.4621L80.6633 107.191H81.8922L83.0854 111.657H83.1451L84.3343 107.191H85.5633L83.7695 113.3H82.5564L81.3155 108.889H81.2241L79.9832 113.3H78.7741ZM87.881 109.673V113.3H86.6918V105.154H87.8651V108.185H87.9407C88.0839 107.856 88.3026 107.595 88.5969 107.402C88.8912 107.208 89.2757 107.111 89.7503 107.111C90.1693 107.111 90.5352 107.197 90.8481 107.37C91.1636 107.542 91.4075 107.799 91.5799 108.141C91.7549 108.481 91.8424 108.905 91.8424 109.414V113.3H90.6532V109.557C90.6532 109.109 90.5378 108.762 90.3072 108.515C90.0765 108.266 89.7556 108.141 89.3447 108.141C89.0636 108.141 88.8117 108.201 88.589 108.32C88.3689 108.44 88.1952 108.615 88.0679 108.845C87.9433 109.073 87.881 109.349 87.881 109.673ZM96.0623 113.423C95.4604 113.423 94.942 113.295 94.5072 113.037C94.075 112.777 93.7409 112.413 93.5049 111.944C93.2715 111.472 93.1549 110.919 93.1549 110.285C93.1549 109.659 93.2715 109.108 93.5049 108.63C93.7409 108.153 94.0697 107.781 94.4912 107.513C94.9155 107.245 95.4113 107.111 95.9787 107.111C96.3234 107.111 96.6575 107.168 96.981 107.282C97.3045 107.396 97.5948 107.575 97.852 107.819C98.1092 108.063 98.3121 108.38 98.4606 108.77C98.609 109.157 98.6833 109.627 98.6833 110.182V110.603H93.827V109.712H97.518C97.518 109.399 97.4543 109.122 97.327 108.881C97.1998 108.637 97.0208 108.445 96.7901 108.304C96.5621 108.164 96.2943 108.094 95.9867 108.094C95.6526 108.094 95.3609 108.176 95.1117 108.34C94.8651 108.502 94.6742 108.714 94.539 108.977C94.4064 109.236 94.3401 109.519 94.3401 109.824V110.52C94.3401 110.928 94.4117 111.275 94.5549 111.562C94.7007 111.848 94.9036 112.067 95.1634 112.218C95.4233 112.366 95.7269 112.441 96.0742 112.441C96.2996 112.441 96.5051 112.409 96.6907 112.345C96.8763 112.279 97.0367 112.181 97.1719 112.051C97.3072 111.921 97.4106 111.761 97.4822 111.57L98.6077 111.773C98.5176 112.104 98.3558 112.394 98.1225 112.644C97.8918 112.89 97.6015 113.082 97.2515 113.22C96.9041 113.355 96.5077 113.423 96.0623 113.423ZM101.192 109.673V113.3H100.003V107.191H101.144V108.185H101.22C101.36 107.862 101.58 107.602 101.88 107.405C102.182 107.209 102.563 107.111 103.021 107.111C103.438 107.111 103.802 107.199 104.115 107.374C104.428 107.546 104.671 107.803 104.843 108.145C105.015 108.487 105.102 108.91 105.102 109.414V113.3H103.912V109.557C103.912 109.114 103.797 108.768 103.566 108.519C103.336 108.267 103.019 108.141 102.616 108.141C102.34 108.141 102.095 108.201 101.88 108.32C101.668 108.44 101.5 108.615 101.375 108.845C101.253 109.073 101.192 109.349 101.192 109.673ZM111.438 113.435C111.051 113.435 110.701 113.363 110.388 113.22C110.076 113.074 109.828 112.864 109.645 112.588C109.464 112.312 109.374 111.974 109.374 111.574C109.374 111.229 109.44 110.945 109.573 110.723C109.706 110.5 109.885 110.323 110.11 110.194C110.335 110.064 110.587 109.966 110.866 109.899C111.144 109.833 111.428 109.783 111.717 109.748C112.083 109.706 112.38 109.671 112.608 109.645C112.836 109.616 113.001 109.569 113.105 109.505C113.208 109.442 113.26 109.338 113.26 109.195V109.167C113.26 108.82 113.162 108.551 112.966 108.36C112.772 108.169 112.483 108.074 112.099 108.074C111.698 108.074 111.383 108.162 111.152 108.34C110.924 108.515 110.766 108.71 110.679 108.925L109.561 108.67C109.694 108.299 109.887 107.999 110.142 107.771C110.399 107.541 110.695 107.374 111.029 107.27C111.363 107.164 111.714 107.111 112.083 107.111C112.327 107.111 112.585 107.14 112.858 107.199C113.134 107.254 113.391 107.358 113.63 107.509C113.871 107.66 114.069 107.876 114.222 108.157C114.376 108.436 114.453 108.798 114.453 109.243V113.3H113.292V112.465H113.244C113.167 112.618 113.052 112.77 112.898 112.918C112.744 113.066 112.547 113.19 112.305 113.288C112.064 113.386 111.775 113.435 111.438 113.435ZM111.697 112.48C112.026 112.48 112.307 112.416 112.54 112.286C112.776 112.156 112.955 111.986 113.077 111.777C113.202 111.564 113.264 111.338 113.264 111.096V110.309C113.222 110.351 113.139 110.391 113.017 110.428C112.898 110.463 112.762 110.493 112.608 110.52C112.454 110.544 112.304 110.566 112.158 110.587C112.012 110.606 111.89 110.622 111.792 110.635C111.562 110.664 111.351 110.713 111.16 110.782C110.972 110.851 110.821 110.951 110.707 111.08C110.595 111.208 110.54 111.377 110.54 111.59C110.54 111.884 110.648 112.107 110.866 112.258C111.083 112.406 111.36 112.48 111.697 112.48ZM117.226 109.673V113.3H116.037V107.191H117.179V108.185H117.254C117.395 107.862 117.615 107.602 117.914 107.405C118.217 107.209 118.597 107.111 119.056 107.111C119.472 107.111 119.837 107.199 120.15 107.374C120.463 107.546 120.705 107.803 120.877 108.145C121.05 108.487 121.136 108.91 121.136 109.414V113.3H119.947V109.557C119.947 109.114 119.831 108.768 119.601 108.519C119.37 108.267 119.053 108.141 118.65 108.141C118.374 108.141 118.129 108.201 117.914 108.32C117.702 108.44 117.534 108.615 117.409 108.845C117.287 109.073 117.226 109.349 117.226 109.673ZM123.264 115.591C123.086 115.591 122.924 115.576 122.779 115.547C122.633 115.52 122.524 115.491 122.452 115.459L122.739 114.485C122.956 114.543 123.15 114.569 123.32 114.561C123.489 114.553 123.639 114.489 123.769 114.37C123.902 114.25 124.018 114.055 124.119 113.785L124.266 113.379L122.031 107.191H123.304L124.851 111.932H124.914L126.462 107.191H127.738L125.221 114.115C125.104 114.433 124.955 114.702 124.775 114.923C124.595 115.145 124.38 115.312 124.131 115.424C123.882 115.535 123.593 115.591 123.264 115.591ZM133.144 113.3L131.347 107.191H132.576L133.773 111.677H133.832L135.034 107.191H136.263L137.456 111.657H137.515L138.705 107.191H139.934L138.14 113.3H136.927L135.686 108.889H135.594L134.353 113.3H133.144ZM142.84 113.435C142.453 113.435 142.103 113.363 141.79 113.22C141.477 113.074 141.229 112.864 141.046 112.588C140.866 112.312 140.776 111.974 140.776 111.574C140.776 111.229 140.842 110.945 140.975 110.723C141.107 110.5 141.286 110.323 141.512 110.194C141.737 110.064 141.989 109.966 142.267 109.899C142.546 109.833 142.829 109.783 143.118 109.748C143.484 109.706 143.781 109.671 144.009 109.645C144.237 109.616 144.403 109.569 144.506 109.505C144.61 109.442 144.662 109.338 144.662 109.195V109.167C144.662 108.82 144.563 108.551 144.367 108.36C144.174 108.169 143.885 108.074 143.5 108.074C143.1 108.074 142.784 108.162 142.554 108.34C142.326 108.515 142.168 108.71 142.08 108.925L140.963 108.67C141.095 108.299 141.289 107.999 141.543 107.771C141.801 107.541 142.096 107.374 142.43 107.27C142.764 107.164 143.116 107.111 143.484 107.111C143.728 107.111 143.987 107.14 144.26 107.199C144.536 107.254 144.793 107.358 145.031 107.509C145.273 107.66 145.47 107.876 145.624 108.157C145.778 108.436 145.855 108.798 145.855 109.243V113.3H144.693V112.465H144.646C144.569 112.618 144.453 112.77 144.3 112.918C144.146 113.066 143.948 113.19 143.707 113.288C143.466 113.386 143.177 113.435 142.84 113.435ZM143.098 112.48C143.427 112.48 143.708 112.416 143.942 112.286C144.178 112.156 144.357 111.986 144.479 111.777C144.603 111.564 144.666 111.338 144.666 111.096V110.309C144.623 110.351 144.541 110.391 144.419 110.428C144.3 110.463 144.163 110.493 144.009 110.52C143.855 110.544 143.706 110.566 143.56 110.587C143.414 110.606 143.292 110.622 143.194 110.635C142.963 110.664 142.752 110.713 142.562 110.782C142.373 110.851 142.222 110.951 142.108 111.08C141.997 111.208 141.941 111.377 141.941 111.59C141.941 111.884 142.05 112.107 142.267 112.258C142.485 112.406 142.762 112.48 143.098 112.48ZM148.628 105.154V113.3H147.439V105.154H148.628ZM151.417 105.154V113.3H150.228V105.154H151.417ZM155.65 113.423C155.048 113.423 154.529 113.295 154.095 113.037C153.662 112.777 153.328 112.413 153.092 111.944C152.859 111.472 152.742 110.919 152.742 110.285C152.742 109.659 152.859 109.108 153.092 108.63C153.328 108.153 153.657 107.781 154.079 107.513C154.503 107.245 154.999 107.111 155.566 107.111C155.911 107.111 156.245 107.168 156.569 107.282C156.892 107.396 157.182 107.575 157.44 107.819C157.697 108.063 157.9 108.38 158.048 108.77C158.197 109.157 158.271 109.627 158.271 110.182V110.603H153.415V109.712H157.105C157.105 109.399 157.042 109.122 156.915 108.881C156.787 108.637 156.608 108.445 156.378 108.304C156.15 108.164 155.882 108.094 155.574 108.094C155.24 108.094 154.948 108.176 154.699 108.34C154.453 108.502 154.262 108.714 154.126 108.977C153.994 109.236 153.928 109.519 153.928 109.824V110.52C153.928 110.928 153.999 111.275 154.142 111.562C154.288 111.848 154.491 112.067 154.751 112.218C155.011 112.366 155.314 112.441 155.662 112.441C155.887 112.441 156.093 112.409 156.278 112.345C156.464 112.279 156.624 112.181 156.759 112.051C156.895 111.921 156.998 111.761 157.07 111.57L158.195 111.773C158.105 112.104 157.943 112.394 157.71 112.644C157.479 112.89 157.189 113.082 156.839 113.22C156.492 113.355 156.095 113.423 155.65 113.423ZM162.442 107.191V108.145H159.105V107.191H162.442ZM160 105.727H161.189V111.506C161.189 111.737 161.224 111.91 161.293 112.027C161.361 112.141 161.45 112.219 161.559 112.262C161.67 112.302 161.791 112.321 161.921 112.321C162.016 112.321 162.1 112.315 162.171 112.302C162.243 112.288 162.299 112.278 162.339 112.27L162.553 113.252C162.484 113.279 162.386 113.305 162.259 113.332C162.132 113.361 161.973 113.377 161.782 113.379C161.469 113.385 161.177 113.329 160.907 113.212C160.636 113.096 160.418 112.915 160.25 112.671C160.083 112.427 160 112.121 160 111.753V105.727ZM168.237 108.682L167.159 108.873C167.114 108.735 167.042 108.604 166.944 108.479C166.849 108.355 166.719 108.253 166.554 108.173C166.39 108.094 166.185 108.054 165.938 108.054C165.601 108.054 165.32 108.129 165.095 108.28C164.869 108.429 164.757 108.621 164.757 108.857C164.757 109.061 164.832 109.226 164.983 109.35C165.135 109.475 165.379 109.577 165.715 109.657L166.686 109.879C167.248 110.009 167.667 110.209 167.943 110.48C168.218 110.75 168.356 111.102 168.356 111.534C168.356 111.9 168.25 112.226 168.038 112.512C167.829 112.796 167.536 113.019 167.159 113.18C166.785 113.342 166.352 113.423 165.858 113.423C165.174 113.423 164.616 113.277 164.184 112.986C163.752 112.691 163.487 112.274 163.389 111.733L164.538 111.558C164.61 111.857 164.757 112.084 164.979 112.238C165.202 112.389 165.493 112.465 165.85 112.465C166.24 112.465 166.552 112.384 166.785 112.222C167.018 112.058 167.135 111.857 167.135 111.621C167.135 111.43 167.064 111.27 166.92 111.14C166.78 111.01 166.564 110.912 166.272 110.846L165.238 110.619C164.668 110.489 164.246 110.282 163.973 109.999C163.703 109.715 163.568 109.356 163.568 108.921C163.568 108.56 163.668 108.245 163.87 107.974C164.071 107.704 164.35 107.493 164.705 107.342C165.06 107.188 165.467 107.111 165.926 107.111C166.586 107.111 167.106 107.254 167.485 107.541C167.864 107.824 168.115 108.205 168.237 108.682ZM22.4996 126.3V120.191H23.6411V121.185H23.7167C23.8439 120.848 24.0521 120.586 24.3411 120.398C24.6301 120.207 24.9761 120.111 25.3792 120.111C25.7875 120.111 26.1296 120.207 26.4053 120.398C26.6837 120.588 26.8892 120.851 27.0218 121.185H27.0854C27.2313 120.859 27.4633 120.599 27.7814 120.405C28.0996 120.209 28.4788 120.111 28.9189 120.111C29.4731 120.111 29.9252 120.285 30.2752 120.632C30.6278 120.98 30.8042 121.503 30.8042 122.203V126.3H29.615V122.315C29.615 121.901 29.5023 121.601 29.2769 121.416C29.0515 121.23 28.7824 121.137 28.4695 121.137C28.0824 121.137 27.7814 121.257 27.5667 121.495C27.3519 121.731 27.2445 122.035 27.2445 122.406V126.3H26.0593V122.239C26.0593 121.908 25.9559 121.641 25.7491 121.44C25.5422 121.238 25.2731 121.137 24.9417 121.137C24.7163 121.137 24.5081 121.197 24.3172 121.316C24.129 121.433 23.9765 121.596 23.8599 121.805C23.7458 122.015 23.6888 122.258 23.6888 122.533V126.3H22.4996ZM34.9714 126.423C34.3986 126.423 33.8988 126.292 33.4719 126.029C33.045 125.767 32.7136 125.4 32.4776 124.928C32.2416 124.456 32.1236 123.904 32.1236 123.273C32.1236 122.639 32.2416 122.085 32.4776 121.611C32.7136 121.136 33.045 120.767 33.4719 120.505C33.8988 120.242 34.3986 120.111 34.9714 120.111C35.5441 120.111 36.0439 120.242 36.4708 120.505C36.8977 120.767 37.2291 121.136 37.4651 121.611C37.7011 122.085 37.8191 122.639 37.8191 123.273C37.8191 123.904 37.7011 124.456 37.4651 124.928C37.2291 125.4 36.8977 125.767 36.4708 126.029C36.0439 126.292 35.5441 126.423 34.9714 126.423ZM34.9753 125.425C35.3465 125.425 35.6541 125.327 35.8981 125.13C36.142 124.934 36.3223 124.673 36.439 124.347C36.5583 124.021 36.618 123.662 36.618 123.269C36.618 122.879 36.5583 122.521 36.439 122.195C36.3223 121.866 36.142 121.603 35.8981 121.404C35.6541 121.205 35.3465 121.105 34.9753 121.105C34.6015 121.105 34.2912 121.205 34.0447 121.404C33.8007 121.603 33.6191 121.866 33.4998 122.195C33.3831 122.521 33.3248 122.879 33.3248 123.269C33.3248 123.662 33.3831 124.021 33.4998 124.347C33.6191 124.673 33.8007 124.934 34.0447 125.13C34.2912 125.327 34.6015 125.425 34.9753 125.425ZM44.1648 120.191L41.9495 126.3H40.6768L38.4574 120.191H39.7341L41.2813 124.892H41.3449L42.8881 120.191H44.1648ZM47.7076 126.423C47.1057 126.423 46.5873 126.295 46.1525 126.037C45.7203 125.777 45.3862 125.413 45.1502 124.944C44.9169 124.472 44.8002 123.919 44.8002 123.285C44.8002 122.659 44.9169 122.108 45.1502 121.63C45.3862 121.153 45.715 120.781 46.1366 120.513C46.5608 120.245 47.0566 120.111 47.6241 120.111C47.9688 120.111 48.3028 120.168 48.6263 120.282C48.9498 120.396 49.2402 120.575 49.4974 120.819C49.7546 121.063 49.9574 121.38 50.1059 121.77C50.2544 122.157 50.3286 122.627 50.3286 123.182V123.603H45.4724V122.712H49.1633C49.1633 122.399 49.0996 122.122 48.9724 121.881C48.8451 121.637 48.6661 121.445 48.4354 121.304C48.2074 121.164 47.9396 121.094 47.632 121.094C47.2979 121.094 47.0063 121.176 46.757 121.34C46.5104 121.502 46.3195 121.714 46.1843 121.977C46.0517 122.236 45.9854 122.519 45.9854 122.824V123.52C45.9854 123.928 46.057 124.275 46.2002 124.562C46.346 124.848 46.5489 125.067 46.8087 125.218C47.0686 125.366 47.3722 125.441 47.7195 125.441C47.9449 125.441 48.1504 125.409 48.336 125.345C48.5216 125.279 48.682 125.181 48.8172 125.051C48.9525 124.921 49.0559 124.761 49.1275 124.57L50.253 124.773C50.1629 125.104 50.0011 125.394 49.7678 125.644C49.5371 125.89 49.2468 126.082 48.8968 126.22C48.5494 126.355 48.153 126.423 47.7076 126.423ZM54.6121 126.3V120.191H55.7536V121.185H55.8292C55.9564 120.848 56.1646 120.586 56.4536 120.398C56.7426 120.207 57.0886 120.111 57.4917 120.111C57.9 120.111 58.2421 120.207 58.5178 120.398C58.7962 120.588 59.0017 120.851 59.1343 121.185H59.1979C59.3438 120.859 59.5758 120.599 59.8939 120.405C60.2121 120.209 60.5913 120.111 61.0314 120.111C61.5856 120.111 62.0377 120.285 62.3877 120.632C62.7403 120.98 62.9167 121.503 62.9167 122.203V126.3H61.7275V122.315C61.7275 121.901 61.6148 121.601 61.3894 121.416C61.164 121.23 60.8949 121.137 60.582 121.137C60.1949 121.137 59.8939 121.257 59.6792 121.495C59.4644 121.731 59.357 122.035 59.357 122.406V126.3H58.1718V122.239C58.1718 121.908 58.0684 121.641 57.8616 121.44C57.6547 121.238 57.3856 121.137 57.0542 121.137C56.8288 121.137 56.6206 121.197 56.4297 121.316C56.2415 121.433 56.089 121.596 55.9724 121.805C55.8583 122.015 55.8013 122.258 55.8013 122.533V126.3H54.6121ZM67.0839 126.423C66.5111 126.423 66.0113 126.292 65.5844 126.029C65.1575 125.767 64.8261 125.4 64.5901 124.928C64.3541 124.456 64.2361 123.904 64.2361 123.273C64.2361 122.639 64.3541 122.085 64.5901 121.611C64.8261 121.136 65.1575 120.767 65.5844 120.505C66.0113 120.242 66.5111 120.111 67.0839 120.111C67.6566 120.111 68.1564 120.242 68.5833 120.505C69.0102 120.767 69.3416 121.136 69.5776 121.611C69.8136 122.085 69.9316 122.639 69.9316 123.273C69.9316 123.904 69.8136 124.456 69.5776 124.928C69.3416 125.4 69.0102 125.767 68.5833 126.029C68.1564 126.292 67.6566 126.423 67.0839 126.423ZM67.0878 125.425C67.459 125.425 67.7666 125.327 68.0106 125.13C68.2545 124.934 68.4348 124.673 68.5515 124.347C68.6708 124.021 68.7305 123.662 68.7305 123.269C68.7305 122.879 68.6708 122.521 68.5515 122.195C68.4348 121.866 68.2545 121.603 68.0106 121.404C67.7666 121.205 67.459 121.105 67.0878 121.105C66.714 121.105 66.4037 121.205 66.1572 121.404C65.9132 121.603 65.7316 121.866 65.6123 122.195C65.4956 122.521 65.4373 122.879 65.4373 123.269C65.4373 123.662 65.4956 124.021 65.6123 124.347C65.7316 124.673 65.9132 124.934 66.1572 125.13C66.4037 125.327 66.714 125.425 67.0878 125.425ZM71.259 126.3V120.191H72.4084V121.161H72.4721C72.5834 120.832 72.7796 120.574 73.0607 120.386C73.3444 120.195 73.6652 120.099 74.0232 120.099C74.0974 120.099 74.1849 120.102 74.2857 120.107C74.3891 120.112 74.47 120.119 74.5283 120.127V121.265C74.4806 121.251 74.3957 121.237 74.2738 121.221C74.1518 121.202 74.0298 121.193 73.9079 121.193C73.6268 121.193 73.3762 121.253 73.1562 121.372C72.9387 121.489 72.7664 121.652 72.6391 121.861C72.5118 122.068 72.4482 122.304 72.4482 122.569V126.3H71.259ZM77.9716 126.423C77.3697 126.423 76.8514 126.295 76.4165 126.037C75.9843 125.777 75.6502 125.413 75.4143 124.944C75.1809 124.472 75.0643 123.919 75.0643 123.285C75.0643 122.659 75.1809 122.108 75.4143 121.63C75.6502 121.153 75.979 120.781 76.4006 120.513C76.8249 120.245 77.3207 120.111 77.8881 120.111C78.2328 120.111 78.5669 120.168 78.8904 120.282C79.2139 120.396 79.5042 120.575 79.7614 120.819C80.0186 121.063 80.2215 121.38 80.3699 121.77C80.5184 122.157 80.5927 122.627 80.5927 123.182V123.603H75.7364V122.712H79.4273C79.4273 122.399 79.3637 122.122 79.2364 121.881C79.1091 121.637 78.9302 121.445 78.6995 121.304C78.4715 121.164 78.2037 121.094 77.8961 121.094C77.562 121.094 77.2703 121.176 77.0211 121.34C76.7745 121.502 76.5836 121.714 76.4483 121.977C76.3158 122.236 76.2495 122.519 76.2495 122.824V123.52C76.2495 123.928 76.3211 124.275 76.4643 124.562C76.6101 124.848 76.8129 125.067 77.0728 125.218C77.3326 125.366 77.6362 125.441 77.9836 125.441C78.209 125.441 78.4144 125.409 78.6001 125.345C78.7857 125.279 78.9461 125.181 79.0813 125.051C79.2165 124.921 79.3199 124.761 79.3915 124.57L80.5171 124.773C80.4269 125.104 80.2652 125.394 80.0319 125.644C79.8012 125.89 79.5108 126.082 79.1608 126.22C78.8135 126.355 78.4171 126.423 77.9716 126.423ZM87.7279 120.191V121.145H84.391V120.191H87.7279ZM85.2858 118.727H86.4751V124.506C86.4751 124.737 86.5095 124.91 86.5785 125.027C86.6474 125.141 86.7362 125.219 86.8449 125.262C86.9563 125.302 87.0769 125.321 87.2069 125.321C87.3023 125.321 87.3858 125.315 87.4574 125.302C87.529 125.288 87.5847 125.278 87.6245 125.27L87.8393 126.252C87.7703 126.279 87.6722 126.305 87.5449 126.332C87.4177 126.361 87.2586 126.377 87.0677 126.379C86.7548 126.385 86.4631 126.329 86.1927 126.212C85.9222 126.096 85.7035 125.915 85.5364 125.671C85.3694 125.427 85.2858 125.121 85.2858 124.753V118.727ZM90.3638 122.673V126.3H89.1746V118.154H90.3479V121.185H90.4235C90.5667 120.856 90.7854 120.595 91.0797 120.402C91.3741 120.208 91.7585 120.111 92.2332 120.111C92.6521 120.111 93.018 120.197 93.3309 120.37C93.6464 120.542 93.8903 120.799 94.0627 121.141C94.2377 121.481 94.3252 121.905 94.3252 122.414V126.3H93.136V122.557C93.136 122.109 93.0207 121.762 92.79 121.515C92.5593 121.266 92.2385 121.141 91.8275 121.141C91.5464 121.141 91.2945 121.201 91.0718 121.32C90.8517 121.44 90.678 121.615 90.5508 121.845C90.4261 122.073 90.3638 122.349 90.3638 122.673ZM97.69 126.435C97.3028 126.435 96.9528 126.363 96.64 126.22C96.3271 126.074 96.0792 125.864 95.8962 125.588C95.7159 125.312 95.6258 124.974 95.6258 124.574C95.6258 124.229 95.692 123.945 95.8246 123.723C95.9572 123.5 96.1362 123.323 96.3616 123.194C96.5869 123.064 96.8388 122.966 97.1172 122.899C97.3956 122.833 97.6794 122.783 97.9684 122.748C98.3343 122.706 98.6313 122.671 98.8593 122.645C99.0873 122.616 99.253 122.569 99.3564 122.505C99.4599 122.442 99.5116 122.338 99.5116 122.195V122.167C99.5116 121.82 99.4135 121.551 99.2172 121.36C99.0237 121.169 98.7347 121.074 98.3502 121.074C97.9498 121.074 97.6343 121.162 97.4036 121.34C97.1756 121.515 97.0178 121.71 96.9303 121.925L95.8127 121.67C95.9453 121.299 96.1388 120.999 96.3934 120.771C96.6506 120.541 96.9462 120.374 97.2803 120.27C97.6144 120.164 97.9657 120.111 98.3343 120.111C98.5782 120.111 98.8367 120.14 99.1099 120.199C99.3856 120.254 99.6428 120.358 99.8814 120.509C100.123 120.66 100.32 120.876 100.474 121.157C100.628 121.436 100.705 121.798 100.705 122.243V126.3H99.5434V125.465H99.4956C99.4188 125.618 99.3034 125.77 99.1496 125.918C98.9958 126.066 98.7983 126.19 98.557 126.288C98.3157 126.386 98.0267 126.435 97.69 126.435ZM97.9485 125.48C98.2773 125.48 98.5583 125.416 98.7917 125.286C99.0277 125.156 99.2066 124.986 99.3286 124.777C99.4532 124.564 99.5155 124.338 99.5155 124.096V123.309C99.4731 123.351 99.3909 123.391 99.2689 123.428C99.1496 123.463 99.0131 123.493 98.8593 123.52C98.7055 123.544 98.5557 123.566 98.4099 123.587C98.264 123.606 98.142 123.622 98.0439 123.635C97.8133 123.664 97.6025 123.713 97.4116 123.782C97.2233 123.851 97.0722 123.951 96.9581 124.08C96.8468 124.208 96.7911 124.377 96.7911 124.59C96.7911 124.884 96.8998 125.107 97.1172 125.258C97.3347 125.406 97.6117 125.48 97.9485 125.48ZM103.478 122.673V126.3H102.289V120.191H103.43V121.185H103.506C103.646 120.862 103.866 120.602 104.166 120.405C104.468 120.209 104.849 120.111 105.307 120.111C105.724 120.111 106.088 120.199 106.401 120.374C106.714 120.546 106.957 120.803 107.129 121.145C107.301 121.487 107.388 121.91 107.388 122.414V126.3H106.198V122.557C106.198 122.114 106.083 121.768 105.852 121.519C105.622 121.267 105.305 121.141 104.902 121.141C104.626 121.141 104.381 121.201 104.166 121.32C103.954 121.44 103.785 121.615 103.661 121.845C103.539 122.073 103.478 122.349 103.478 122.673Z" fill="#19191A"/>
<defs>
<filter id="filter0_dd_1_367" x="0.700195" y="0.8" width="203.7" height="185.5" filterUnits="userSpaceOnUse" color-interpolation-filters="sRGB">
<feFlood flood-opacity="0" result="BackgroundImageFix"/>
<feColorMatrix in="SourceAlpha" type="matrix" values="0 0 0 0 0 0 0 0 0 0 0 0 0 0 0 0 0 0 127 0" result="hardAlpha"/>
<feOffset dy="0.7"/>
<feGaussianBlur stdDeviation="0.35"/>
<feComposite in2="hardAlpha" operator="out"/>
<feColorMatrix type="matrix" values="0 0 0 0 0 0 0 0 0 0 0 0 0 0 0 0 0 0 0.04 0"/>
<feBlend mode="normal" in2="BackgroundImageFix" result="effect1_dropShadow_1_367"/>
<feColorMatrix in="SourceAlpha" type="matrix" values="0 0 0 0 0 0 0 0 0 0 0 0 0 0 0 0 0 0 127 0" result="hardAlpha"/>
<feOffset dy="2.8"/>
<feGaussianBlur stdDeviation="3.5"/>
<feComposite in2="hardAlpha" operator="out"/>
<feColorMatrix type="matrix" values="0 0 0 0 0 0 0 0 0 0 0 0 0 0 0 0 0 0 0.04 0"/>
<feBlend mode="normal" in2="effect1_dropShadow_1_367" result="effect2_dropShadow_1_367"/>
<feBlend mode="normal" in="SourceGraphic" in2="effect2_dropShadow_1_367" result="shape"/>
</filter>
</defs>
</svg>
