<svg width="205" height="187" viewBox="0 0 205 187" fill="none" xmlns="http://www.w3.org/2000/svg">
<g filter="url(#filter0_dd_1_380)">
<rect x="7.40039" y="5" width="189.7" height="171.5" rx="8.4" fill="white" shape-rendering="crispEdges"/>
<rect x="169.101" y="19" width="14" height="14" rx="4.2" fill="#0071E3"/>
<path d="M175.365 29.3277C175.67 29.3277 175.9 29.2106 176.057 28.9763L179.436 23.8837C179.492 23.8007 179.533 23.7189 179.56 23.6384C179.587 23.5554 179.601 23.4761 179.601 23.4004C179.601 23.1905 179.527 23.0172 179.381 22.8806C179.237 22.7414 179.059 22.6719 178.846 22.6719C178.7 22.6719 178.575 22.7012 178.473 22.7597C178.373 22.8159 178.278 22.9135 178.187 23.0526L175.35 27.5082L173.93 25.8058C173.776 25.6276 173.583 25.5385 173.351 25.5385C173.134 25.5385 172.954 25.6081 172.813 25.7472C172.671 25.8863 172.601 26.0608 172.601 26.2707C172.601 26.3659 172.615 26.4562 172.645 26.5416C172.676 26.6246 172.734 26.7113 172.817 26.8016L174.702 29.0239C174.875 29.2264 175.096 29.3277 175.365 29.3277Z" fill="white"/>
<path d="M35.4001 44.6663C41.8434 44.6663 47.0667 39.443 47.0667 32.9997C47.0667 26.5564 41.8434 21.333 35.4001 21.333C28.9567 21.333 23.7334 26.5564 23.7334 32.9997C23.7334 39.443 28.9567 44.6663 35.4001 44.6663Z" stroke="black" stroke-width="1.4" stroke-linecap="round" stroke-linejoin="round"/>
<path d="M35.4004 26V33L40.0671 35.3333" stroke="black" stroke-width="1.4" stroke-linecap="round" stroke-linejoin="round"/>
</g>
<rect x="21.4004" y="121.2" width="66.4" height="19.6" rx="2.8" fill="#E5E5E6" fill-opacity="0.5"/>
<path d="M31.4281 131.637L27.1366 133.718V132.729L30.3035 131.288L30.2712 131.343V131.204L30.3035 131.262L27.1366 129.818V128.832L31.4281 130.913V131.637ZM37.6609 134.59C37.2171 134.59 36.8207 134.514 36.4717 134.361C36.1249 134.208 35.8502 133.996 35.6477 133.724C35.4473 133.451 35.3396 133.134 35.3245 132.774H36.3392C36.3521 132.97 36.4179 133.141 36.5363 133.285C36.657 133.427 36.8143 133.537 37.0081 133.615C37.202 133.692 37.4175 133.731 37.6545 133.731C37.9151 133.731 38.1456 133.686 38.346 133.595C38.5485 133.505 38.7069 133.379 38.821 133.217C38.9352 133.053 38.9923 132.865 38.9923 132.652C38.9923 132.43 38.9352 132.235 38.821 132.067C38.709 131.896 38.5442 131.763 38.3266 131.666C38.1112 131.569 37.8505 131.521 37.5446 131.521H36.9855V130.706H37.5446C37.7902 130.706 38.0056 130.662 38.1909 130.574C38.3783 130.485 38.5248 130.363 38.6304 130.205C38.7359 130.046 38.7887 129.86 38.7887 129.646C38.7887 129.442 38.7424 129.264 38.6498 129.113C38.5593 128.96 38.43 128.841 38.262 128.754C38.0961 128.668 37.9 128.625 37.6738 128.625C37.4584 128.625 37.257 128.665 37.0695 128.745C36.8843 128.822 36.7335 128.934 36.6171 129.081C36.5008 129.225 36.4383 129.398 36.4297 129.601H35.4635C35.4742 129.243 35.5798 128.929 35.7802 128.657C35.9827 128.386 36.2498 128.174 36.5816 128.021C36.9134 127.868 37.2817 127.791 37.6868 127.791C38.1112 127.791 38.4774 127.874 38.7855 128.04C39.0957 128.204 39.3348 128.423 39.5029 128.696C39.6731 128.97 39.7571 129.269 39.7549 129.595C39.7571 129.965 39.6537 130.28 39.4447 130.538C39.2379 130.797 38.9621 130.97 38.6174 131.058V131.11C39.0569 131.177 39.3973 131.351 39.6386 131.634C39.8821 131.916 40.0027 132.266 40.0005 132.684C40.0027 133.048 39.9014 133.374 39.6968 133.663C39.4943 133.952 39.2174 134.179 38.8663 134.345C38.5151 134.509 38.1133 134.59 37.6609 134.59ZM43.5261 134.61C43.0156 134.608 42.5793 134.473 42.2174 134.206C41.8554 133.939 41.5786 133.55 41.3869 133.039C41.1951 132.529 41.0993 131.914 41.0993 131.194C41.0993 130.477 41.1951 129.864 41.3869 129.355C41.5808 128.847 41.8587 128.459 42.2206 128.192C42.5847 127.925 43.0199 127.791 43.5261 127.791C44.0324 127.791 44.4665 127.926 44.8285 128.195C45.1904 128.462 45.4672 128.85 45.659 129.359C45.8529 129.865 45.9498 130.477 45.9498 131.194C45.9498 131.916 45.8539 132.532 45.6622 133.043C45.4705 133.551 45.1936 133.94 44.8317 134.209C44.4698 134.476 44.0346 134.61 43.5261 134.61ZM43.5261 133.747C43.9743 133.747 44.3243 133.528 44.5764 133.091C44.8306 132.654 44.9577 132.021 44.9577 131.194C44.9577 130.645 44.8995 130.181 44.7832 129.801C44.669 129.42 44.5042 129.131 44.2888 128.935C44.0755 128.737 43.8213 128.638 43.5261 128.638C43.0802 128.638 42.7301 128.858 42.4759 129.297C42.2217 129.737 42.0935 130.369 42.0913 131.194C42.0913 131.746 42.1484 132.212 42.2626 132.593C42.379 132.973 42.5438 133.26 42.757 133.456C42.9703 133.65 43.2267 133.747 43.5261 133.747ZM51.3755 134.597C50.9748 134.597 50.6172 134.495 50.3027 134.29C49.9903 134.083 49.7447 133.789 49.5659 133.408C49.3892 133.024 49.3009 132.564 49.3009 132.028C49.3009 131.491 49.3903 131.033 49.5691 130.651C49.7501 130.27 49.9978 129.978 50.3124 129.775C50.6269 129.573 50.9834 129.472 51.382 129.472C51.6901 129.472 51.9378 129.523 52.1253 129.627C52.3148 129.728 52.4613 129.847 52.5647 129.982C52.6703 130.118 52.7522 130.238 52.8103 130.341H52.8685V127.882H53.8347V134.5H52.8911V133.728H52.8103C52.7522 133.833 52.6682 133.954 52.5583 134.09C52.4506 134.225 52.3019 134.344 52.1123 134.445C51.9227 134.546 51.6772 134.597 51.3755 134.597ZM51.5888 133.773C51.8667 133.773 52.1016 133.7 52.2933 133.553C52.4872 133.405 52.6337 133.199 52.7328 132.936C52.834 132.673 52.8847 132.367 52.8847 132.018C52.8847 131.673 52.8351 131.372 52.736 131.113C52.6369 130.855 52.4915 130.653 52.2998 130.509C52.108 130.365 51.871 130.293 51.5888 130.293C51.298 130.293 51.0556 130.368 50.8617 130.519C50.6678 130.67 50.5213 130.875 50.4222 131.136C50.3253 131.397 50.2768 131.691 50.2768 132.018C50.2768 132.35 50.3264 132.648 50.4255 132.913C50.5246 133.178 50.6711 133.388 50.865 133.543C51.061 133.696 51.3023 133.773 51.5888 133.773ZM56.6583 134.61C56.3438 134.61 56.0594 134.552 55.8052 134.435C55.551 134.317 55.3495 134.146 55.2009 133.922C55.0544 133.698 54.9811 133.423 54.9811 133.098C54.9811 132.817 55.035 132.587 55.1427 132.406C55.2504 132.225 55.3958 132.082 55.579 131.976C55.7621 131.871 55.9667 131.791 56.193 131.737C56.4192 131.683 56.6497 131.642 56.8845 131.614C57.1818 131.58 57.4231 131.552 57.6084 131.53C57.7936 131.507 57.9283 131.469 58.0123 131.417C58.0963 131.365 58.1383 131.281 58.1383 131.165V131.142C58.1383 130.86 58.0586 130.642 57.8992 130.486C57.7419 130.331 57.5071 130.254 57.1947 130.254C56.8694 130.254 56.6131 130.326 56.4256 130.47C56.2403 130.612 56.1122 130.771 56.0411 130.945L55.133 130.738C55.2407 130.437 55.398 130.193 55.6048 130.008C55.8138 129.821 56.054 129.685 56.3254 129.601C56.5969 129.515 56.8823 129.472 57.1818 129.472C57.38 129.472 57.5901 129.495 57.812 129.543C58.036 129.588 58.245 129.672 58.4389 129.795C58.6349 129.918 58.7954 130.093 58.9204 130.322C59.0453 130.548 59.1078 130.842 59.1078 131.204V134.5H58.1642V133.821H58.1254C58.0629 133.946 57.9692 134.069 57.8443 134.19C57.7193 134.31 57.5588 134.411 57.3628 134.49C57.1667 134.57 56.9319 134.61 56.6583 134.61ZM56.8683 133.834C57.1355 133.834 57.3638 133.782 57.5534 133.676C57.7452 133.57 57.8906 133.433 57.9897 133.262C58.0909 133.09 58.1416 132.906 58.1416 132.71V132.07C58.1071 132.104 58.0403 132.137 57.9412 132.167C57.8443 132.195 57.7333 132.22 57.6084 132.241C57.4834 132.261 57.3617 132.279 57.2432 132.296C57.1247 132.311 57.0256 132.324 56.9459 132.335C56.7585 132.359 56.5872 132.398 56.4321 132.454C56.2791 132.51 56.1563 132.591 56.0637 132.697C55.9732 132.8 55.928 132.938 55.928 133.11C55.928 133.35 56.0163 133.531 56.193 133.653C56.3696 133.774 56.5947 133.834 56.8683 133.834ZM60.8278 136.361C60.6834 136.361 60.552 136.35 60.4335 136.326C60.315 136.304 60.2267 136.281 60.1685 136.255L60.4012 135.463C60.5779 135.51 60.7351 135.531 60.873 135.524C61.0109 135.518 61.1326 135.466 61.2382 135.369C61.3459 135.272 61.4407 135.114 61.5226 134.894L61.6421 134.565L59.826 129.536H60.8601L62.1172 133.388H62.1689L63.4259 129.536H64.4633L62.4177 135.162C62.3229 135.421 62.2023 135.64 62.0558 135.818C61.9093 135.999 61.7348 136.135 61.5323 136.226C61.3297 136.316 61.0949 136.361 60.8278 136.361ZM69.0908 130.748L68.2151 130.903C68.1784 130.791 68.1203 130.685 68.0406 130.583C67.963 130.482 67.8574 130.399 67.7239 130.335C67.5903 130.27 67.4233 130.238 67.223 130.238C66.9494 130.238 66.721 130.299 66.5379 130.422C66.3548 130.542 66.2632 130.699 66.2632 130.89C66.2632 131.056 66.3246 131.19 66.4474 131.291C66.5702 131.392 66.7684 131.475 67.042 131.54L67.8305 131.721C68.2872 131.826 68.6276 131.989 68.8517 132.209C69.0757 132.429 69.1878 132.714 69.1878 133.065C69.1878 133.363 69.1016 133.627 68.9292 133.86C68.759 134.091 68.521 134.272 68.2151 134.403C67.9113 134.534 67.5591 134.6 67.1584 134.6C66.6025 134.6 66.149 134.482 65.7979 134.245C65.4467 134.006 65.2313 133.666 65.1516 133.227L66.0855 133.085C66.1437 133.328 66.2632 133.512 66.4442 133.637C66.6252 133.76 66.8611 133.821 67.1519 133.821C67.4686 133.821 67.7217 133.756 67.9113 133.624C68.1009 133.491 68.1957 133.328 68.1957 133.136C68.1957 132.981 68.1375 132.851 68.0212 132.745C67.907 132.64 67.7314 132.56 67.4944 132.506L66.6542 132.322C66.191 132.216 65.8485 132.048 65.6266 131.818C65.4069 131.587 65.297 131.295 65.297 130.942C65.297 130.649 65.3789 130.393 65.5426 130.173C65.7063 129.953 65.9325 129.782 66.2212 129.659C66.5099 129.534 66.8406 129.472 67.2133 129.472C67.7497 129.472 68.172 129.588 68.4801 129.821C68.7881 130.051 68.9917 130.36 69.0908 130.748Z" fill="#313233"/>
<path d="M75.4998 129.899L77.8774 132.277C77.9457 132.345 78.0565 132.345 78.1249 132.277L80.5023 129.899C80.6126 129.789 80.5345 129.601 80.3786 129.601H75.6236C75.4677 129.601 75.3896 129.789 75.4998 129.899Z" fill="#96979A"/>
<path d="M28.8697 89.0547V97.2002H27.7402L23.5998 91.2263H23.5243V97.2002H22.2953V89.0547H23.4328L27.5771 95.0366H27.6527V89.0547H28.8697ZM33.1403 97.3235C32.5676 97.3235 32.0678 97.1922 31.6409 96.9297C31.214 96.6672 30.8825 96.3 30.6466 95.828C30.4106 95.3561 30.2926 94.8046 30.2926 94.1735C30.2926 93.5398 30.4106 92.9856 30.6466 92.511C30.8825 92.0364 31.214 91.6678 31.6409 91.4053C32.0678 91.1428 32.5676 91.0116 33.1403 91.0116C33.713 91.0116 34.2128 91.1428 34.6397 91.4053C35.0666 91.6678 35.3981 92.0364 35.6341 92.511C35.87 92.9856 35.988 93.5398 35.988 94.1735C35.988 94.8046 35.87 95.3561 35.6341 95.828C35.3981 96.3 35.0666 96.6672 34.6397 96.9297C34.2128 97.1922 33.713 97.3235 33.1403 97.3235ZM33.1443 96.3252C33.5155 96.3252 33.8231 96.2271 34.067 96.0309C34.3109 95.8347 34.4913 95.5735 34.6079 95.2474C34.7272 94.9212 34.7869 94.5619 34.7869 94.1695C34.7869 93.7797 34.7272 93.4218 34.6079 93.0956C34.4913 92.7669 34.3109 92.503 34.067 92.3042C33.8231 92.1053 33.5155 92.0059 33.1443 92.0059C32.7704 92.0059 32.4602 92.1053 32.2136 92.3042C31.9697 92.503 31.788 92.7669 31.6687 93.0956C31.552 93.4218 31.4937 93.7797 31.4937 94.1695C31.4937 94.5619 31.552 94.9212 31.6687 95.2474C31.788 95.5735 31.9697 95.8347 32.2136 96.0309C32.4602 96.2271 32.7704 96.3252 33.1443 96.3252ZM40.1672 91.0911V92.0456H36.8302V91.0911H40.1672ZM37.7251 89.6275H38.9143V95.4064C38.9143 95.6371 38.9488 95.8108 39.0177 95.9275C39.0867 96.0415 39.1755 96.1197 39.2842 96.1621C39.3956 96.2019 39.5162 96.2218 39.6461 96.2218C39.7416 96.2218 39.8251 96.2152 39.8967 96.2019C39.9683 96.1886 40.024 96.178 40.0637 96.1701L40.2785 97.1525C40.2096 97.179 40.1115 97.2055 39.9842 97.232C39.8569 97.2612 39.6978 97.2771 39.5069 97.2797C39.194 97.285 38.9024 97.2294 38.6319 97.1127C38.3615 96.996 38.1427 96.8157 37.9757 96.5718C37.8086 96.3278 37.7251 96.0216 37.7251 95.653V89.6275ZM41.4826 97.2002V91.0911H42.6718V97.2002H41.4826ZM42.0832 90.1485C41.8764 90.1485 41.6987 90.0796 41.5502 89.9417C41.4044 89.8011 41.3315 89.6341 41.3315 89.4405C41.3315 89.2443 41.4044 89.0773 41.5502 88.9394C41.6987 88.7989 41.8764 88.7286 42.0832 88.7286C42.29 88.7286 42.4663 88.7989 42.6122 88.9394C42.7607 89.0773 42.8349 89.2443 42.8349 89.4405C42.8349 89.6341 42.7607 89.8011 42.6122 89.9417C42.4663 90.0796 42.29 90.1485 42.0832 90.1485ZM47.1791 91.0911V92.0456H43.7268V91.0911H47.1791ZM44.6734 97.2002V90.3831C44.6734 90.0013 44.7569 89.6845 44.924 89.4326C45.091 89.178 45.3124 88.9885 45.5882 88.8638C45.8639 88.7366 46.1636 88.6729 46.487 88.6729C46.7257 88.6729 46.9298 88.6928 47.0995 88.7326C47.2692 88.7697 47.3952 88.8042 47.4774 88.836L47.199 89.7985C47.1433 89.7826 47.0717 89.764 46.9842 89.7428C46.8967 89.7189 46.7906 89.707 46.666 89.707C46.377 89.707 46.1702 89.7786 46.0456 89.9218C45.9236 90.065 45.8626 90.2718 45.8626 90.5422V97.2002H44.6734ZM49.1578 99.4911C48.9801 99.4911 48.8184 99.4765 48.6725 99.4474C48.5267 99.4208 48.418 99.3917 48.3464 99.3599L48.6328 98.3854C48.8502 98.4438 49.0438 98.4689 49.2135 98.461C49.3832 98.453 49.533 98.3894 49.6629 98.2701C49.7955 98.1508 49.9121 97.9559 50.0129 97.6854L50.16 97.2797L47.9248 91.0911H49.1975L50.7447 95.832H50.8083L52.3555 91.0911H53.6322L51.1146 98.0155C50.9979 98.3337 50.8494 98.6028 50.6691 98.8229C50.4888 99.0456 50.2741 99.2127 50.0248 99.3241C49.7756 99.4354 49.4866 99.4911 49.1578 99.4911ZM57.7139 97.2002V91.0911H58.8554V92.0854H58.9309C59.0582 91.7487 59.2663 91.4862 59.5554 91.2979C59.8444 91.107 60.1904 91.0116 60.5934 91.0116C61.0018 91.0116 61.3438 91.107 61.6196 91.2979C61.898 91.4888 62.1035 91.7513 62.236 92.0854H62.2997C62.4455 91.7593 62.6775 91.4994 62.9957 91.3059C63.3139 91.1097 63.693 91.0116 64.1332 91.0116C64.6874 91.0116 65.1395 91.1852 65.4895 91.5326C65.8421 91.8799 66.0184 92.4036 66.0184 93.1036V97.2002H64.8292V93.215C64.8292 92.8013 64.7165 92.5017 64.4912 92.3161C64.2658 92.1305 63.9966 92.0377 63.6838 92.0377C63.2966 92.0377 62.9957 92.157 62.7809 92.3956C62.5662 92.6316 62.4588 92.9352 62.4588 93.3064V97.2002H61.2735V93.1394C61.2735 92.808 61.1701 92.5415 60.9633 92.34C60.7565 92.1385 60.4874 92.0377 60.1559 92.0377C59.9306 92.0377 59.7224 92.0974 59.5315 92.2167C59.3432 92.3333 59.1908 92.4964 59.0741 92.7059C58.9601 92.9153 58.9031 93.158 58.9031 93.4337V97.2002H57.7139ZM70.2453 97.3235C69.6434 97.3235 69.125 97.1949 68.6902 96.9377C68.258 96.6778 67.9239 96.3133 67.6879 95.8439C67.4546 95.372 67.3379 94.8191 67.3379 94.1854C67.3379 93.5597 67.4546 93.0081 67.6879 92.5309C67.9239 92.0536 68.2527 91.6811 68.6743 91.4133C69.0985 91.1455 69.5943 91.0116 70.1618 91.0116C70.5064 91.0116 70.8405 91.0686 71.164 91.1826C71.4875 91.2966 71.7779 91.4756 72.035 91.7195C72.2922 91.9635 72.4951 92.2803 72.6436 92.6701C72.7921 93.0572 72.8663 93.5278 72.8663 94.082V94.5036H68.01V93.6127H71.701C71.701 93.2998 71.6373 93.0227 71.51 92.7814C71.3828 92.5375 71.2038 92.3453 70.9731 92.2047C70.7451 92.0642 70.4773 91.9939 70.1697 91.9939C69.8356 91.9939 69.5439 92.0761 69.2947 92.2405C69.0481 92.4023 68.8572 92.6144 68.722 92.8769C68.5894 93.1367 68.5231 93.4191 68.5231 93.7241V94.4201C68.5231 94.8284 68.5947 95.1758 68.7379 95.4621C68.8837 95.7485 69.0866 95.9672 69.3464 96.1184C69.6063 96.2669 69.9099 96.3411 70.2572 96.3411C70.4826 96.3411 70.6881 96.3093 70.8737 96.2456C71.0593 96.1794 71.2197 96.0813 71.3549 95.9513C71.4902 95.8214 71.5936 95.661 71.6652 95.4701L72.7907 95.6729C72.7006 96.0044 72.5388 96.2947 72.3055 96.5439C72.0748 96.7905 71.7845 96.9828 71.4345 97.1206C71.0871 97.2559 70.6907 97.3235 70.2453 97.3235ZM78.4743 97.2002L76.6765 91.0911H77.9055L79.1027 95.5775H79.1623L80.3635 91.0911H81.5924L82.7856 95.5576H82.8453L84.0345 91.0911H85.2635L83.4697 97.2002H82.2566L81.0157 92.7894H80.9243L79.6833 97.2002H78.4743ZM87.5812 93.5729V97.2002H86.392V89.0547H87.5653V92.0854H87.6409C87.7841 91.7566 88.0028 91.4955 88.2971 91.3019C88.5914 91.1083 88.9759 91.0116 89.4505 91.0116C89.8695 91.0116 90.2354 91.0977 90.5483 91.2701C90.8638 91.4424 91.1077 91.6996 91.2801 92.0417C91.4551 92.3811 91.5426 92.8053 91.5426 93.3144V97.2002H90.3534V93.4576C90.3534 93.0095 90.238 92.6621 90.0073 92.4155C89.7767 92.1663 89.4558 92.0417 89.0448 92.0417C88.7638 92.0417 88.5119 92.1013 88.2892 92.2206C88.0691 92.34 87.8954 92.515 87.7681 92.7456C87.6435 92.9737 87.5812 93.2494 87.5812 93.5729ZM95.7625 97.3235C95.1606 97.3235 94.6422 97.1949 94.2074 96.9377C93.7752 96.6778 93.4411 96.3133 93.2051 95.8439C92.9717 95.372 92.8551 94.8191 92.8551 94.1854C92.8551 93.5597 92.9717 93.0081 93.2051 92.5309C93.4411 92.0536 93.7699 91.6811 94.1914 91.4133C94.6157 91.1455 95.1115 91.0116 95.6789 91.0116C96.0236 91.0116 96.3577 91.0686 96.6812 91.1826C97.0047 91.2966 97.295 91.4756 97.5522 91.7195C97.8094 91.9635 98.0123 92.2803 98.1608 92.6701C98.3092 93.0572 98.3835 93.5278 98.3835 94.082V94.5036H93.5272V93.6127H97.2181C97.2181 93.2998 97.1545 93.0227 97.0272 92.7814C96.9 92.5375 96.721 92.3453 96.4903 92.2047C96.2623 92.0642 95.9945 91.9939 95.6869 91.9939C95.3528 91.9939 95.0611 92.0761 94.8119 92.2405C94.5653 92.4023 94.3744 92.6144 94.2392 92.8769C94.1066 93.1367 94.0403 93.4191 94.0403 93.7241V94.4201C94.0403 94.8284 94.1119 95.1758 94.2551 95.4621C94.4009 95.7485 94.6038 95.9672 94.8636 96.1184C95.1234 96.2669 95.427 96.3411 95.7744 96.3411C95.9998 96.3411 96.2053 96.3093 96.3909 96.2456C96.5765 96.1794 96.7369 96.0813 96.8721 95.9513C97.0074 95.8214 97.1108 95.661 97.1824 95.4701L98.3079 95.6729C98.2178 96.0044 98.056 96.2947 97.8227 96.5439C97.592 96.7905 97.3017 96.9828 96.9517 97.1206C96.6043 97.2559 96.2079 97.3235 95.7625 97.3235ZM100.892 93.5729V97.2002H99.7029V91.0911H100.844V92.0854H100.92C101.061 91.7619 101.281 91.5021 101.58 91.3059C101.882 91.1097 102.263 91.0116 102.722 91.0116C103.138 91.0116 103.503 91.0991 103.815 91.2741C104.128 91.4464 104.371 91.7036 104.543 92.0456C104.716 92.3877 104.802 92.8106 104.802 93.3144V97.2002H103.613V93.4576C103.613 93.0148 103.497 92.6688 103.267 92.4195C103.036 92.1676 102.719 92.0417 102.316 92.0417C102.04 92.0417 101.795 92.1013 101.58 92.2206C101.368 92.34 101.2 92.515 101.075 92.7456C100.953 92.9737 100.892 93.2494 100.892 93.5729ZM111.139 97.3354C110.751 97.3354 110.401 97.2638 110.089 97.1206C109.776 96.9748 109.528 96.764 109.345 96.4883C109.165 96.2125 109.074 95.8744 109.074 95.4741C109.074 95.1294 109.141 94.8456 109.273 94.6229C109.406 94.4002 109.585 94.2239 109.81 94.0939C110.036 93.964 110.287 93.8659 110.566 93.7996C110.844 93.7333 111.128 93.683 111.417 93.6485C111.783 93.6061 112.08 93.5716 112.308 93.5451C112.536 93.5159 112.702 93.4695 112.805 93.4059C112.908 93.3422 112.96 93.2388 112.96 93.0956V93.0678C112.96 92.7205 112.862 92.4513 112.666 92.2604C112.472 92.0695 112.183 91.9741 111.799 91.9741C111.398 91.9741 111.083 92.0629 110.852 92.2405C110.624 92.4155 110.466 92.6104 110.379 92.8252L109.261 92.5706C109.394 92.1994 109.587 91.8998 109.842 91.6718C110.099 91.4411 110.395 91.2741 110.729 91.1706C111.063 91.0646 111.414 91.0116 111.783 91.0116C112.027 91.0116 112.285 91.0407 112.558 91.0991C112.834 91.1547 113.091 91.2581 113.33 91.4093C113.571 91.5604 113.769 91.7765 113.923 92.0576C114.076 92.336 114.153 92.6979 114.153 93.1434V97.2002H112.992V96.365H112.944C112.867 96.5188 112.752 96.6699 112.598 96.8184C112.444 96.9669 112.247 97.0902 112.006 97.1883C111.764 97.2864 111.475 97.3354 111.139 97.3354ZM111.397 96.3809C111.726 96.3809 112.007 96.3159 112.24 96.186C112.476 96.0561 112.655 95.8864 112.777 95.6769C112.902 95.4648 112.964 95.2381 112.964 94.9968V94.2093C112.922 94.2517 112.84 94.2915 112.718 94.3286C112.598 94.3631 112.462 94.3936 112.308 94.4201C112.154 94.4439 112.004 94.4665 111.858 94.4877C111.713 94.5063 111.591 94.5222 111.493 94.5354C111.262 94.5646 111.051 94.6136 110.86 94.6826C110.672 94.7515 110.521 94.851 110.407 94.9809C110.295 95.1081 110.24 95.2778 110.24 95.49C110.24 95.7843 110.348 96.007 110.566 96.1581C110.783 96.3066 111.06 96.3809 111.397 96.3809ZM116.927 93.5729V97.2002H115.737V91.0911H116.879V92.0854H116.954C117.095 91.7619 117.315 91.5021 117.615 91.3059C117.917 91.1097 118.297 91.0116 118.756 91.0116C119.172 91.0116 119.537 91.0991 119.85 91.2741C120.163 91.4464 120.405 91.7036 120.578 92.0456C120.75 92.3877 120.836 92.8106 120.836 93.3144V97.2002H119.647V93.4576C119.647 93.0148 119.532 92.6688 119.301 92.4195C119.07 92.1676 118.753 92.0417 118.35 92.0417C118.075 92.0417 117.829 92.1013 117.615 92.2206C117.402 92.34 117.234 92.515 117.109 92.7456C116.988 92.9737 116.927 93.2494 116.927 93.5729ZM122.964 99.4911C122.786 99.4911 122.625 99.4765 122.479 99.4474C122.333 99.4208 122.224 99.3917 122.153 99.3599L122.439 98.3854C122.656 98.4438 122.85 98.4689 123.02 98.461C123.189 98.453 123.339 98.3894 123.469 98.2701C123.602 98.1508 123.718 97.9559 123.819 97.6854L123.966 97.2797L121.731 91.0911H123.004L124.551 95.832H124.615L126.162 91.0911H127.438L124.921 98.0155C124.804 98.3337 124.656 98.6028 124.475 98.8229C124.295 99.0456 124.08 99.2127 123.831 99.3241C123.582 99.4354 123.293 99.4911 122.964 99.4911ZM23.5243 110.2L21.7265 104.091H22.9555L24.1527 108.577H24.2123L25.4135 104.091H26.6424L27.8356 108.558H27.8953L29.0845 104.091H30.3135L28.5197 110.2H27.3066L26.0657 105.789H25.9743L24.7333 110.2H23.5243ZM33.2199 110.335C32.8327 110.335 32.4827 110.264 32.1699 110.121C31.857 109.975 31.6091 109.764 31.4261 109.488C31.2458 109.213 31.1556 108.874 31.1556 108.474C31.1556 108.129 31.2219 107.846 31.3545 107.623C31.4871 107.4 31.6661 107.224 31.8914 107.094C32.1168 106.964 32.3687 106.866 32.6471 106.8C32.9255 106.733 33.2092 106.683 33.4983 106.648C33.8642 106.606 34.1611 106.572 34.3892 106.545C34.6172 106.516 34.7829 106.47 34.8863 106.406C34.9897 106.342 35.0414 106.239 35.0414 106.096V106.068C35.0414 105.72 34.9433 105.451 34.7471 105.26C34.5536 105.07 34.2645 104.974 33.8801 104.974C33.4797 104.974 33.1642 105.063 32.9335 105.241C32.7055 105.416 32.5477 105.61 32.4602 105.825L31.3426 105.571C31.4752 105.199 31.6687 104.9 31.9233 104.672C32.1805 104.441 32.4761 104.274 32.8102 104.171C33.1443 104.065 33.4956 104.012 33.8642 104.012C34.1081 104.012 34.3666 104.041 34.6397 104.099C34.9155 104.155 35.1727 104.258 35.4113 104.409C35.6526 104.56 35.8502 104.777 36.0039 105.058C36.1577 105.336 36.2346 105.698 36.2346 106.143V110.2H35.0733V109.365H35.0255C34.9486 109.519 34.8333 109.67 34.6795 109.818C34.5257 109.967 34.3282 110.09 34.0869 110.188C33.8456 110.286 33.5566 110.335 33.2199 110.335ZM33.4784 109.381C33.8072 109.381 34.0882 109.316 34.3216 109.186C34.5575 109.056 34.7365 108.886 34.8585 108.677C34.9831 108.465 35.0454 108.238 35.0454 107.997V107.209C35.003 107.252 34.9208 107.291 34.7988 107.329C34.6795 107.363 34.543 107.394 34.3892 107.42C34.2354 107.444 34.0856 107.466 33.9397 107.488C33.7939 107.506 33.6719 107.522 33.5738 107.535C33.3431 107.565 33.1324 107.614 32.9414 107.683C32.7532 107.752 32.602 107.851 32.488 107.981C32.3767 108.108 32.321 108.278 32.321 108.49C32.321 108.784 32.4297 109.007 32.6471 109.158C32.8645 109.307 33.1416 109.381 33.4784 109.381ZM39.0078 102.055V110.2H37.8186V102.055H39.0078ZM41.7968 102.055V110.2H40.6076V102.055H41.7968ZM46.0297 110.323C45.4278 110.323 44.9094 110.195 44.4745 109.938C44.0423 109.678 43.7083 109.313 43.4723 108.844C43.2389 108.372 43.1223 107.819 43.1223 107.185C43.1223 106.56 43.2389 106.008 43.4723 105.531C43.7083 105.054 44.037 104.681 44.4586 104.413C44.8829 104.145 45.3787 104.012 45.9461 104.012C46.2908 104.012 46.6249 104.069 46.9484 104.183C47.2719 104.297 47.5622 104.476 47.8194 104.72C48.0766 104.963 48.2795 105.28 48.4279 105.67C48.5764 106.057 48.6507 106.528 48.6507 107.082V107.504H43.7944V106.613H47.4853C47.4853 106.3 47.4217 106.023 47.2944 105.781C47.1672 105.538 46.9882 105.345 46.7575 105.205C46.5295 105.064 46.2617 104.994 45.9541 104.994C45.62 104.994 45.3283 105.076 45.0791 105.241C44.8325 105.402 44.6416 105.614 44.5064 105.877C44.3738 106.137 44.3075 106.419 44.3075 106.724V107.42C44.3075 107.828 44.3791 108.176 44.5223 108.462C44.6681 108.748 44.8709 108.967 45.1308 109.118C45.3906 109.267 45.6942 109.341 46.0416 109.341C46.267 109.341 46.4725 109.309 46.6581 109.246C46.8437 109.179 47.0041 109.081 47.1393 108.951C47.2745 108.821 47.3779 108.661 47.4495 108.47L48.5751 108.673C48.485 109.004 48.3232 109.295 48.0899 109.544C47.8592 109.791 47.5689 109.983 47.2189 110.121C46.8715 110.256 46.4751 110.323 46.0297 110.323ZM52.8218 104.091V105.046H49.4849V104.091H52.8218ZM50.3798 102.627H51.569V108.406C51.569 108.637 51.6035 108.811 51.6724 108.927C51.7413 109.041 51.8302 109.12 51.9389 109.162C52.0502 109.202 52.1709 109.222 52.3008 109.222C52.3963 109.222 52.4798 109.215 52.5514 109.202C52.623 109.189 52.6787 109.178 52.7184 109.17L52.9332 110.152C52.8643 110.179 52.7662 110.205 52.6389 110.232C52.5116 110.261 52.3525 110.277 52.1616 110.28C51.8487 110.285 51.5571 110.229 51.2866 110.113C51.0162 109.996 50.7974 109.816 50.6304 109.572C50.4633 109.328 50.3798 109.022 50.3798 108.653V102.627ZM59.3883 110.32C58.8951 110.32 58.455 110.194 58.0679 109.942C57.6834 109.687 57.3811 109.325 57.161 108.856C56.9436 108.384 56.8349 107.818 56.8349 107.158C56.8349 106.497 56.9449 105.933 57.165 105.463C57.3877 104.994 57.6927 104.635 58.0798 104.385C58.4669 104.136 58.9057 104.012 59.3963 104.012C59.7754 104.012 60.0804 104.075 60.311 104.202C60.5444 104.327 60.7247 104.473 60.852 104.64C60.9819 104.807 61.0826 104.954 61.1542 105.081H61.2258V102.055H62.415V110.2H61.2537V109.25H61.1542C61.0826 109.38 60.9792 109.528 60.844 109.695C60.7114 109.862 60.5285 110.008 60.2951 110.133C60.0618 110.257 59.7595 110.32 59.3883 110.32ZM59.6508 109.305C59.9929 109.305 60.2819 109.215 60.5179 109.035C60.7565 108.852 60.9368 108.599 61.0588 108.275C61.1834 107.952 61.2457 107.575 61.2457 107.146C61.2457 106.721 61.1847 106.35 61.0627 106.032C60.9408 105.714 60.7618 105.466 60.5258 105.288C60.2898 105.111 59.9982 105.022 59.6508 105.022C59.2929 105.022 58.9946 105.115 58.7559 105.3C58.5173 105.486 58.337 105.739 58.215 106.06C58.0957 106.381 58.036 106.743 58.036 107.146C58.036 107.554 58.097 107.921 58.219 108.247C58.341 108.573 58.5213 108.832 58.7599 109.023C59.0012 109.211 59.2982 109.305 59.6508 109.305ZM66.6856 110.323C66.1129 110.323 65.6131 110.192 65.1862 109.93C64.7593 109.667 64.4279 109.3 64.1919 108.828C63.9559 108.356 63.8379 107.805 63.8379 107.173C63.8379 106.54 63.9559 105.986 64.1919 105.511C64.4279 105.036 64.7593 104.668 65.1862 104.405C65.6131 104.143 66.1129 104.012 66.6856 104.012C67.2583 104.012 67.7582 104.143 68.185 104.405C68.6119 104.668 68.9434 105.036 69.1794 105.511C69.4154 105.986 69.5333 106.54 69.5333 107.173C69.5333 107.805 69.4154 108.356 69.1794 108.828C68.9434 109.3 68.6119 109.667 68.185 109.93C67.7582 110.192 67.2583 110.323 66.6856 110.323ZM66.6896 109.325C67.0608 109.325 67.3684 109.227 67.6123 109.031C67.8563 108.835 68.0366 108.573 68.1532 108.247C68.2725 107.921 68.3322 107.562 68.3322 107.17C68.3322 106.78 68.2725 106.422 68.1532 106.096C68.0366 105.767 67.8563 105.503 67.6123 105.304C67.3684 105.105 67.0608 105.006 66.6896 105.006C66.3157 105.006 66.0055 105.105 65.7589 105.304C65.515 105.503 65.3333 105.767 65.214 106.096C65.0974 106.422 65.039 106.78 65.039 107.17C65.039 107.562 65.0974 107.921 65.214 108.247C65.3333 108.573 65.515 108.835 65.7589 109.031C66.0055 109.227 66.3157 109.325 66.6896 109.325ZM70.8608 110.2V104.091H72.0102V105.062H72.0738C72.1852 104.733 72.3814 104.474 72.6625 104.286C72.9462 104.095 73.267 104 73.625 104C73.6992 104 73.7867 104.002 73.8875 104.008C73.9909 104.013 74.0717 104.02 74.1301 104.027V105.165C74.0824 105.152 73.9975 105.137 73.8755 105.121C73.7536 105.103 73.6316 105.093 73.5096 105.093C73.2286 105.093 72.978 105.153 72.7579 105.272C72.5405 105.389 72.3681 105.552 72.2409 105.762C72.1136 105.968 72.05 106.204 72.05 106.47V110.2H70.8608ZM75.1592 110.2V104.091H76.3007V105.085H76.3762C76.5035 104.749 76.7117 104.486 77.0007 104.298C77.2897 104.107 77.6357 104.012 78.0387 104.012C78.4471 104.012 78.7891 104.107 79.0649 104.298C79.3433 104.489 79.5488 104.751 79.6814 105.085H79.745C79.8908 104.759 80.1228 104.499 80.441 104.306C80.7592 104.11 81.1384 104.012 81.5785 104.012C82.1327 104.012 82.5848 104.185 82.9348 104.533C83.2874 104.88 83.4637 105.404 83.4637 106.104V110.2H82.2745V106.215C82.2745 105.801 82.1618 105.502 81.9365 105.316C81.7111 105.13 81.442 105.038 81.1291 105.038C80.742 105.038 80.441 105.157 80.2262 105.396C80.0115 105.632 79.9041 105.935 79.9041 106.306V110.2H78.7189V106.139C78.7189 105.808 78.6154 105.541 78.4086 105.34C78.2018 105.138 77.9327 105.038 77.6012 105.038C77.3759 105.038 77.1677 105.097 76.9768 105.217C76.7886 105.333 76.6361 105.496 76.5194 105.706C76.4054 105.915 76.3484 106.158 76.3484 106.434V110.2H75.1592ZM86.8355 110.335C86.4484 110.335 86.0984 110.264 85.7855 110.121C85.4726 109.975 85.2247 109.764 85.0417 109.488C84.8614 109.213 84.7713 108.874 84.7713 108.474C84.7713 108.129 84.8376 107.846 84.9701 107.623C85.1027 107.4 85.2817 107.224 85.5071 107.094C85.7324 106.964 85.9843 106.866 86.2627 106.8C86.5412 106.733 86.8249 106.683 87.1139 106.648C87.4798 106.606 87.7768 106.572 88.0048 106.545C88.2328 106.516 88.3985 106.47 88.502 106.406C88.6054 106.342 88.6571 106.239 88.6571 106.096V106.068C88.6571 105.72 88.559 105.451 88.3627 105.26C88.1692 105.07 87.8802 104.974 87.4957 104.974C87.0953 104.974 86.7798 105.063 86.5491 105.241C86.3211 105.416 86.1633 105.61 86.0758 105.825L84.9582 105.571C85.0908 105.199 85.2843 104.9 85.5389 104.672C85.7961 104.441 86.0917 104.274 86.4258 104.171C86.7599 104.065 87.1112 104.012 87.4798 104.012C87.7237 104.012 87.9823 104.041 88.2554 104.099C88.5311 104.155 88.7883 104.258 89.027 104.409C89.2682 104.56 89.4658 104.777 89.6196 105.058C89.7734 105.336 89.8502 105.698 89.8502 106.143V110.2H88.6889V109.365H88.6412C88.5643 109.519 88.4489 109.67 88.2951 109.818C88.1413 109.967 87.9438 110.09 87.7025 110.188C87.4612 110.286 87.1722 110.335 86.8355 110.335ZM87.094 109.381C87.4228 109.381 87.7038 109.316 87.9372 109.186C88.1732 109.056 88.3521 108.886 88.4741 108.677C88.5987 108.465 88.661 108.238 88.661 107.997V107.209C88.6186 107.252 88.5364 107.291 88.4145 107.329C88.2951 107.363 88.1586 107.394 88.0048 107.42C87.851 107.444 87.7012 107.466 87.5554 107.488C87.4095 107.506 87.2876 107.522 87.1895 107.535C86.9588 107.565 86.748 107.614 86.5571 107.683C86.3688 107.752 86.2177 107.851 86.1037 107.981C85.9923 108.108 85.9366 108.278 85.9366 108.49C85.9366 108.784 86.0453 109.007 86.2627 109.158C86.4802 109.307 86.7573 109.381 87.094 109.381ZM92.6234 106.573V110.2H91.4342V104.091H92.5757V105.085H92.6512C92.7918 104.762 93.0118 104.502 93.3115 104.306C93.6137 104.11 93.9942 104.012 94.4529 104.012C94.8692 104.012 95.2338 104.099 95.5467 104.274C95.8596 104.446 96.1022 104.704 96.2745 105.046C96.4469 105.388 96.5331 105.811 96.5331 106.314V110.2H95.3439V106.458C95.3439 106.015 95.2285 105.669 94.9978 105.42C94.7672 105.168 94.4503 105.042 94.0473 105.042C93.7715 105.042 93.5262 105.101 93.3115 105.221C93.0993 105.34 92.931 105.515 92.8064 105.746C92.6844 105.974 92.6234 106.249 92.6234 106.573ZM100.98 104.091V105.046H97.6427V104.091H100.98ZM98.5376 102.627H99.7268V108.406C99.7268 108.637 99.7613 108.811 99.8302 108.927C99.8992 109.041 99.988 109.12 100.097 109.162C100.208 109.202 100.329 109.222 100.459 109.222C100.554 109.222 100.638 109.215 100.709 109.202C100.781 109.189 100.836 109.178 100.876 109.17L101.091 110.152C101.022 110.179 100.924 110.205 100.797 110.232C100.669 110.261 100.51 110.277 100.319 110.28C100.007 110.285 99.7149 110.229 99.4444 110.113C99.174 109.996 98.9552 109.816 98.7882 109.572C98.6211 109.328 98.5376 109.022 98.5376 108.653V102.627ZM108.167 104.091V105.046H104.714V104.091H108.167ZM105.661 110.2V103.383C105.661 103.001 105.744 102.684 105.911 102.433C106.079 102.178 106.3 101.988 106.576 101.864C106.851 101.737 107.151 101.673 107.475 101.673C107.713 101.673 107.917 101.693 108.087 101.733C108.257 101.77 108.383 101.804 108.465 101.836L108.186 102.798C108.131 102.783 108.059 102.764 107.972 102.743C107.884 102.719 107.778 102.707 107.654 102.707C107.364 102.707 107.158 102.779 107.033 102.922C106.911 103.065 106.85 103.272 106.85 103.542V110.2H105.661ZM111.726 110.323C111.154 110.323 110.654 110.192 110.227 109.93C109.8 109.667 109.468 109.3 109.232 108.828C108.997 108.356 108.879 107.805 108.879 107.173C108.879 106.54 108.997 105.986 109.232 105.511C109.468 105.036 109.8 104.668 110.227 104.405C110.654 104.143 111.154 104.012 111.726 104.012C112.299 104.012 112.799 104.143 113.226 104.405C113.653 104.668 113.984 105.036 114.22 105.511C114.456 105.986 114.574 106.54 114.574 107.173C114.574 107.805 114.456 108.356 114.22 108.828C113.984 109.3 113.653 109.667 113.226 109.93C112.799 110.192 112.299 110.323 111.726 110.323ZM111.73 109.325C112.101 109.325 112.409 109.227 112.653 109.031C112.897 108.835 113.077 108.573 113.194 108.247C113.313 107.921 113.373 107.562 113.373 107.17C113.373 106.78 113.313 106.422 113.194 106.096C113.077 105.767 112.897 105.503 112.653 105.304C112.409 105.105 112.101 105.006 111.73 105.006C111.356 105.006 111.046 105.105 110.8 105.304C110.556 105.503 110.374 105.767 110.255 106.096C110.138 106.422 110.08 106.78 110.08 107.17C110.08 107.562 110.138 107.921 110.255 108.247C110.374 108.573 110.556 108.835 110.8 109.031C111.046 109.227 111.356 109.325 111.73 109.325ZM115.901 110.2V104.091H117.051V105.062H117.114C117.226 104.733 117.422 104.474 117.703 104.286C117.987 104.095 118.308 104 118.666 104C118.74 104 118.827 104.002 118.928 104.008C119.031 104.013 119.112 104.02 119.171 104.027V105.165C119.123 105.152 119.038 105.137 118.916 105.121C118.794 105.103 118.672 105.093 118.55 105.093C118.269 105.093 118.019 105.153 117.799 105.272C117.581 105.389 117.409 105.552 117.281 105.762C117.154 105.968 117.091 106.204 117.091 106.47V110.2H115.901Z" fill="#19191A"/>
<path d="M22.2953 160.2V152.055H23.4845V155.081H23.5561C23.625 154.954 23.7244 154.807 23.8544 154.64C23.9843 154.473 24.1646 154.327 24.3953 154.202C24.626 154.075 24.9309 154.012 25.31 154.012C25.8032 154.012 26.2434 154.136 26.6305 154.385C27.0176 154.635 27.3212 154.994 27.5413 155.463C27.764 155.933 27.8754 156.497 27.8754 157.158C27.8754 157.818 27.7654 158.384 27.5453 158.856C27.3252 159.325 27.0229 159.687 26.6385 159.942C26.254 160.194 25.8152 160.32 25.322 160.32C24.9508 160.32 24.6472 160.257 24.4112 160.133C24.1779 160.008 23.9949 159.862 23.8623 159.695C23.7297 159.528 23.6277 159.38 23.5561 159.25H23.4566V160.2H22.2953ZM23.4606 157.146C23.4606 157.575 23.5229 157.952 23.6475 158.275C23.7722 158.599 23.9525 158.852 24.1885 159.035C24.4244 159.215 24.7135 159.305 25.0555 159.305C25.4108 159.305 25.7078 159.211 25.9464 159.023C26.185 158.832 26.3654 158.573 26.4873 158.247C26.6119 157.921 26.6743 157.554 26.6743 157.146C26.6743 156.743 26.6133 156.381 26.4913 156.06C26.372 155.739 26.1917 155.486 25.9504 155.3C25.7118 155.115 25.4135 155.022 25.0555 155.022C24.7108 155.022 24.4191 155.111 24.1805 155.288C23.9445 155.466 23.7655 155.714 23.6436 156.032C23.5216 156.35 23.4606 156.721 23.4606 157.146ZM31.8437 160.323C31.2418 160.323 30.7234 160.195 30.2886 159.938C29.8564 159.678 29.5223 159.313 29.2863 158.844C29.053 158.372 28.9363 157.819 28.9363 157.185C28.9363 156.56 29.053 156.008 29.2863 155.531C29.5223 155.054 29.8511 154.681 30.2727 154.413C30.6969 154.145 31.1928 154.012 31.7602 154.012C32.1049 154.012 32.439 154.069 32.7625 154.183C33.0859 154.297 33.3763 154.476 33.6335 154.72C33.8907 154.963 34.0935 155.28 34.242 155.67C34.3905 156.057 34.4647 156.528 34.4647 157.082V157.504H29.6085V156.613H33.2994C33.2994 156.3 33.2358 156.023 33.1085 155.781C32.9812 155.538 32.8022 155.345 32.5716 155.205C32.3435 155.064 32.0757 154.994 31.7681 154.994C31.4341 154.994 31.1424 155.076 30.8931 155.241C30.6466 155.402 30.4556 155.614 30.3204 155.877C30.1878 156.137 30.1216 156.419 30.1216 156.724V157.42C30.1216 157.828 30.1931 158.176 30.3363 158.462C30.4822 158.748 30.685 158.967 30.9449 159.118C31.2047 159.267 31.5083 159.341 31.8556 159.341C32.081 159.341 32.2865 159.309 32.4721 159.246C32.6577 159.179 32.8181 159.081 32.9534 158.951C33.0886 158.821 33.192 158.661 33.2636 158.47L34.3892 158.673C34.299 159.004 34.1373 159.295 33.9039 159.544C33.6733 159.791 33.3829 159.983 33.0329 160.121C32.6856 160.256 32.2892 160.323 31.8437 160.323ZM38.3575 160.323C37.7662 160.323 37.2571 160.19 36.8302 159.922C36.406 159.651 36.0798 159.279 35.8518 158.804C35.6238 158.33 35.5098 157.786 35.5098 157.173C35.5098 156.553 35.6264 156.005 35.8598 155.531C36.0931 155.054 36.4219 154.681 36.8461 154.413C37.2704 154.145 37.7702 154.012 38.3456 154.012C38.8096 154.012 39.2232 154.098 39.5865 154.27C39.9497 154.44 40.2427 154.678 40.4654 154.986C40.6908 155.294 40.8247 155.653 40.8672 156.064H39.7098C39.6461 155.777 39.5003 155.531 39.2723 155.324C39.0469 155.117 38.7446 155.014 38.3654 155.014C38.034 155.014 37.7437 155.101 37.4944 155.276C37.2478 155.449 37.0556 155.695 36.9177 156.016C36.7798 156.334 36.7109 156.711 36.7109 157.146C36.7109 157.591 36.7785 157.976 36.9137 158.299C37.049 158.623 37.2399 158.873 37.4865 159.051C37.7357 159.228 38.0287 159.317 38.3654 159.317C38.5908 159.317 38.795 159.276 38.9779 159.194C39.1636 159.109 39.3187 158.988 39.4433 158.832C39.5706 158.676 39.6594 158.487 39.7098 158.267H40.8672C40.8247 158.662 40.6961 159.015 40.4814 159.325C40.2666 159.635 39.9789 159.879 39.6183 160.057C39.2603 160.235 38.8401 160.323 38.3575 160.323ZM44.7122 160.323C44.1395 160.323 43.6396 160.192 43.2127 159.93C42.7859 159.667 42.4544 159.3 42.2184 158.828C41.9824 158.356 41.8645 157.805 41.8645 157.173C41.8645 156.54 41.9824 155.986 42.2184 155.511C42.4544 155.036 42.7859 154.668 43.2127 154.405C43.6396 154.143 44.1395 154.012 44.7122 154.012C45.2849 154.012 45.7847 154.143 46.2116 154.405C46.6385 154.668 46.9699 155.036 47.2059 155.511C47.4419 155.986 47.5599 156.54 47.5599 157.173C47.5599 157.805 47.4419 158.356 47.2059 158.828C46.9699 159.3 46.6385 159.667 46.2116 159.93C45.7847 160.192 45.2849 160.323 44.7122 160.323ZM44.7162 159.325C45.0874 159.325 45.3949 159.227 45.6389 159.031C45.8828 158.835 46.0631 158.573 46.1798 158.247C46.2991 157.921 46.3588 157.562 46.3588 157.17C46.3588 156.78 46.2991 156.422 46.1798 156.096C46.0631 155.767 45.8828 155.503 45.6389 155.304C45.3949 155.105 45.0874 155.006 44.7162 155.006C44.3423 155.006 44.0321 155.105 43.7855 155.304C43.5415 155.503 43.3599 155.767 43.2406 156.096C43.1239 156.422 43.0656 156.78 43.0656 157.17C43.0656 157.562 43.1239 157.921 43.2406 158.247C43.3599 158.573 43.5415 158.835 43.7855 159.031C44.0321 159.227 44.3423 159.325 44.7162 159.325ZM48.8873 160.2V154.091H50.0288V155.085H50.1044C50.2316 154.749 50.4398 154.486 50.7288 154.298C51.0178 154.107 51.3638 154.012 51.7669 154.012C52.1752 154.012 52.5172 154.107 52.793 154.298C53.0714 154.489 53.2769 154.751 53.4095 155.085H53.4731C53.619 154.759 53.851 154.499 54.1691 154.306C54.4873 154.11 54.8665 154.012 55.3066 154.012C55.8608 154.012 56.3129 154.185 56.6629 154.533C57.0155 154.88 57.1919 155.404 57.1919 156.104V160.2H56.0027V156.215C56.0027 155.801 55.89 155.502 55.6646 155.316C55.4392 155.13 55.1701 155.038 54.8572 155.038C54.4701 155.038 54.1691 155.157 53.9544 155.396C53.7396 155.632 53.6322 155.935 53.6322 156.306V160.2H52.447V156.139C52.447 155.808 52.3436 155.541 52.1368 155.34C51.9299 155.138 51.6608 155.038 51.3294 155.038C51.104 155.038 50.8958 155.097 50.7049 155.217C50.5167 155.333 50.3642 155.496 50.2475 155.706C50.1335 155.915 50.0765 156.158 50.0765 156.434V160.2H48.8873ZM61.4187 160.323C60.8168 160.323 60.2984 160.195 59.8636 159.938C59.4314 159.678 59.0973 159.313 58.8613 158.844C58.628 158.372 58.5113 157.819 58.5113 157.185C58.5113 156.56 58.628 156.008 58.8613 155.531C59.0973 155.054 59.4261 154.681 59.8477 154.413C60.2719 154.145 60.7678 154.012 61.3352 154.012C61.6799 154.012 62.014 154.069 62.3375 154.183C62.6609 154.297 62.9513 154.476 63.2085 154.72C63.4657 154.963 63.6685 155.28 63.817 155.67C63.9655 156.057 64.0397 156.528 64.0397 157.082V157.504H59.1835V156.613H62.8744C62.8744 156.3 62.8108 156.023 62.6835 155.781C62.5562 155.538 62.3772 155.345 62.1466 155.205C61.9185 155.064 61.6507 154.994 61.3431 154.994C61.0091 154.994 60.7174 155.076 60.4681 155.241C60.2216 155.402 60.0306 155.614 59.8954 155.877C59.7628 156.137 59.6966 156.419 59.6966 156.724V157.42C59.6966 157.828 59.7681 158.176 59.9113 158.462C60.0572 158.748 60.26 158.967 60.5199 159.118C60.7797 159.267 61.0833 159.341 61.4306 159.341C61.656 159.341 61.8615 159.309 62.0471 159.246C62.2327 159.179 62.3931 159.081 62.5284 158.951C62.6636 158.821 62.767 158.661 62.8386 158.47L63.9642 158.673C63.874 159.004 63.7123 159.295 63.4789 159.544C63.2483 159.791 62.9579 159.983 62.6079 160.121C62.2606 160.256 61.8642 160.323 61.4187 160.323ZM69.937 155.583L68.8592 155.773C68.8141 155.636 68.7425 155.504 68.6444 155.38C68.549 155.255 68.419 155.153 68.2547 155.073C68.0903 154.994 67.8848 154.954 67.6382 154.954C67.3014 154.954 67.0204 155.03 66.795 155.181C66.5696 155.329 66.4569 155.522 66.4569 155.758C66.4569 155.962 66.5325 156.126 66.6836 156.251C66.8348 156.375 67.0787 156.477 67.4154 156.557L68.3859 156.78C68.948 156.91 69.367 157.11 69.6427 157.38C69.9185 157.651 70.0564 158.002 70.0564 158.434C70.0564 158.8 69.9503 159.126 69.7382 159.413C69.5287 159.696 69.2357 159.919 68.8592 160.081C68.4853 160.243 68.0518 160.323 67.5586 160.323C66.8745 160.323 66.3164 160.178 65.8842 159.886C65.452 159.592 65.1868 159.174 65.0887 158.633L66.2382 158.458C66.3098 158.758 66.4569 158.984 66.6797 159.138C66.9024 159.289 67.1927 159.365 67.5507 159.365C67.9404 159.365 68.252 159.284 68.4853 159.122C68.7187 158.958 68.8353 158.758 68.8353 158.522C68.8353 158.331 68.7637 158.17 68.6206 158.041C68.48 157.911 68.2639 157.813 67.9723 157.746L66.9382 157.52C66.3681 157.39 65.9465 157.183 65.6734 156.899C65.4029 156.615 65.2677 156.256 65.2677 155.821C65.2677 155.461 65.3685 155.145 65.57 154.875C65.7715 154.604 66.0499 154.393 66.4052 154.242C66.7605 154.088 67.1675 154.012 67.6262 154.012C68.2865 154.012 68.8062 154.155 69.1853 154.441C69.5645 154.725 69.8151 155.105 69.937 155.583ZM76.1058 160.335C75.7187 160.335 75.3687 160.264 75.0558 160.121C74.7429 159.975 74.495 159.764 74.312 159.488C74.1317 159.213 74.0416 158.874 74.0416 158.474C74.0416 158.129 74.1079 157.846 74.2404 157.623C74.373 157.4 74.552 157.224 74.7774 157.094C75.0028 156.964 75.2547 156.866 75.5331 156.8C75.8115 156.733 76.0952 156.683 76.3842 156.648C76.7501 156.606 77.0471 156.572 77.2751 156.545C77.5031 156.516 77.6689 156.47 77.7723 156.406C77.8757 156.342 77.9274 156.239 77.9274 156.096V156.068C77.9274 155.72 77.8293 155.451 77.6331 155.26C77.4395 155.07 77.1505 154.974 76.766 154.974C76.3656 154.974 76.0501 155.063 75.8194 155.241C75.5914 155.416 75.4336 155.61 75.3461 155.825L74.2285 155.571C74.3611 155.199 74.5547 154.9 74.8092 154.672C75.0664 154.441 75.362 154.274 75.6961 154.171C76.0302 154.065 76.3815 154.012 76.7501 154.012C76.994 154.012 77.2526 154.041 77.5257 154.099C77.8014 154.155 78.0586 154.258 78.2973 154.409C78.5386 154.56 78.7361 154.777 78.8899 155.058C79.0437 155.336 79.1206 155.698 79.1206 156.143V160.2H77.9592V159.365H77.9115C77.8346 159.519 77.7192 159.67 77.5654 159.818C77.4117 159.967 77.2141 160.09 76.9728 160.188C76.7315 160.286 76.4425 160.335 76.1058 160.335ZM76.3643 159.381C76.6931 159.381 76.9742 159.316 77.2075 159.186C77.4435 159.056 77.6225 158.886 77.7444 158.677C77.869 158.465 77.9314 158.238 77.9314 157.997V157.209C77.8889 157.252 77.8067 157.291 77.6848 157.329C77.5654 157.363 77.4289 157.394 77.2751 157.42C77.1213 157.444 76.9715 157.466 76.8257 157.488C76.6798 157.506 76.5579 157.522 76.4598 157.535C76.2291 157.565 76.0183 157.614 75.8274 157.683C75.6391 157.752 75.488 157.851 75.374 157.981C75.2626 158.108 75.2069 158.278 75.2069 158.49C75.2069 158.784 75.3156 159.007 75.5331 159.158C75.7505 159.307 76.0276 159.381 76.3643 159.381ZM83.2778 160.323C82.6865 160.323 82.1774 160.19 81.7505 159.922C81.3263 159.651 81.0002 159.279 80.7721 158.804C80.5441 158.33 80.4301 157.786 80.4301 157.173C80.4301 156.553 80.5467 156.005 80.7801 155.531C81.0134 155.054 81.3422 154.681 81.7664 154.413C82.1907 154.145 82.6905 154.012 83.2659 154.012C83.7299 154.012 84.1435 154.098 84.5068 154.27C84.87 154.44 85.163 154.678 85.3858 154.986C85.6111 155.294 85.745 155.653 85.7875 156.064H84.6301C84.5664 155.777 84.4206 155.531 84.1926 155.324C83.9672 155.117 83.6649 155.014 83.2858 155.014C82.9543 155.014 82.664 155.101 82.4147 155.276C82.1681 155.449 81.9759 155.695 81.838 156.016C81.7002 156.334 81.6312 156.711 81.6312 157.146C81.6312 157.591 81.6988 157.976 81.8341 158.299C81.9693 158.623 82.1602 158.873 82.4068 159.051C82.656 159.228 82.949 159.317 83.2858 159.317C83.5111 159.317 83.7153 159.276 83.8983 159.194C84.0839 159.109 84.239 158.988 84.3636 158.832C84.4909 158.676 84.5797 158.487 84.6301 158.267H85.7875C85.745 158.662 85.6164 159.015 85.4017 159.325C85.1869 159.635 84.8992 159.879 84.5386 160.057C84.1806 160.235 83.7604 160.323 83.2778 160.323ZM89.9109 154.091V155.046H86.574V154.091H89.9109ZM87.4689 152.627H88.6581V158.406C88.6581 158.637 88.6925 158.811 88.7615 158.927C88.8304 159.041 88.9192 159.12 89.0279 159.162C89.1393 159.202 89.26 159.222 89.3899 159.222C89.4853 159.222 89.5689 159.215 89.6404 159.202C89.712 159.189 89.7677 159.178 89.8075 159.17L90.0223 160.152C89.9533 160.179 89.8552 160.205 89.7279 160.232C89.6007 160.261 89.4416 160.277 89.2507 160.28C88.9378 160.285 88.6461 160.229 88.3757 160.113C88.1052 159.996 87.8865 159.816 87.7194 159.572C87.5524 159.328 87.4689 159.022 87.4689 158.653V152.627ZM91.2264 160.2V154.091H92.4156V160.2H91.2264ZM91.8269 153.148C91.6201 153.148 91.4425 153.08 91.294 152.942C91.1482 152.801 91.0752 152.634 91.0752 152.441C91.0752 152.244 91.1482 152.077 91.294 151.939C91.4425 151.799 91.6201 151.729 91.8269 151.729C92.0338 151.729 92.2101 151.799 92.3559 151.939C92.5044 152.077 92.5787 152.244 92.5787 152.441C92.5787 152.634 92.5044 152.801 92.3559 152.942C92.2101 153.08 92.0338 153.148 91.8269 153.148ZM99.2416 154.091L97.0262 160.2H95.7535L93.5342 154.091H94.8109L96.3581 158.792H96.4217L97.9649 154.091H99.2416ZM102.784 160.323C102.182 160.323 101.664 160.195 101.229 159.938C100.797 159.678 100.463 159.313 100.227 158.844C99.9936 158.372 99.877 157.819 99.877 157.185C99.877 156.56 99.9936 156.008 100.227 155.531C100.463 155.054 100.792 154.681 101.213 154.413C101.638 154.145 102.133 154.012 102.701 154.012C103.046 154.012 103.38 154.069 103.703 154.183C104.027 154.297 104.317 154.476 104.574 154.72C104.831 154.963 105.034 155.28 105.183 155.67C105.331 156.057 105.405 156.528 105.405 157.082V157.504H100.549V156.613H104.24C104.24 156.3 104.176 156.023 104.049 155.781C103.922 155.538 103.743 155.345 103.512 155.205C103.284 155.064 103.016 154.994 102.709 154.994C102.375 154.994 102.083 155.076 101.834 155.241C101.587 155.402 101.396 155.614 101.261 155.877C101.128 156.137 101.062 156.419 101.062 156.724V157.42C101.062 157.828 101.134 158.176 101.277 158.462C101.423 158.748 101.626 158.967 101.885 159.118C102.145 159.267 102.449 159.341 102.796 159.341C103.022 159.341 103.227 159.309 103.413 159.246C103.598 159.179 103.759 159.081 103.894 158.951C104.029 158.821 104.133 158.661 104.204 158.47L105.33 158.673C105.24 159.004 105.078 159.295 104.845 159.544C104.614 159.791 104.324 159.983 103.974 160.121C103.626 160.256 103.23 160.323 102.784 160.323Z" fill="#19191A"/>
<defs>
<filter id="filter0_dd_1_380" x="0.400391" y="0.8" width="203.7" height="185.5" filterUnits="userSpaceOnUse" color-interpolation-filters="sRGB">
<feFlood flood-opacity="0" result="BackgroundImageFix"/>
<feColorMatrix in="SourceAlpha" type="matrix" values="0 0 0 0 0 0 0 0 0 0 0 0 0 0 0 0 0 0 127 0" result="hardAlpha"/>
<feOffset dy="0.7"/>
<feGaussianBlur stdDeviation="0.35"/>
<feComposite in2="hardAlpha" operator="out"/>
<feColorMatrix type="matrix" values="0 0 0 0 0 0 0 0 0 0 0 0 0 0 0 0 0 0 0.04 0"/>
<feBlend mode="normal" in2="BackgroundImageFix" result="effect1_dropShadow_1_380"/>
<feColorMatrix in="SourceAlpha" type="matrix" values="0 0 0 0 0 0 0 0 0 0 0 0 0 0 0 0 0 0 127 0" result="hardAlpha"/>
<feOffset dy="2.8"/>
<feGaussianBlur stdDeviation="3.5"/>
<feComposite in2="hardAlpha" operator="out"/>
<feColorMatrix type="matrix" values="0 0 0 0 0 0 0 0 0 0 0 0 0 0 0 0 0 0 0.04 0"/>
<feBlend mode="normal" in2="effect1_dropShadow_1_380" result="effect2_dropShadow_1_380"/>
<feBlend mode="normal" in="SourceGraphic" in2="effect2_dropShadow_1_380" result="shape"/>
</filter>
</defs>
</svg>
